<?xml version="1.0" encoding="utf-8"?>
<!-- Generator: Adobe Illustrator 27.5.0, SVG Export Plug-In . SVG Version: 6.00 Build 0)  -->
<svg version="1.1" xmlns="http://www.w3.org/2000/svg" xmlns:xlink="http://www.w3.org/1999/xlink" x="0px" y="0px"
	 viewBox="0 0 750 500" style="enable-background:new 0 0 750 500;" xml:space="preserve">
<g id="BACKGROUND">
	<rect style="fill:#FFFFFF;" width="750" height="500"/>
</g>
<g id="OBJECTS">
	<g>
		<defs>
			<rect id="SVGID_1_" width="750" height="500"/>
		</defs>
		<clipPath id="SVGID_00000069383325819640601330000000480251234676748425_">
			<use xlink:href="#SVGID_1_"  style="overflow:visible;"/>
		</clipPath>
		<g style="clip-path:url(#SVGID_00000069383325819640601330000000480251234676748425_);">
			<g>
				<path style="fill:#893C00;" d="M713.606,383.378c0.225,1.271,1.574,4.439-0.427,4.662
					c-17.513,9.661-35.654,18.141-53.225,27.708c-3.369,1.456-11.018,6.422-14.356,5.2c-4.598-7.864-8.095-16.53-12.488-24.57
					c-0.252-0.465-0.78-1.141-0.285-1.594c18.332-12.271,37.948-23.339,57.424-33.96c2.954-1.213,12.345-7.746,14.483-4.206
					C709.335,364.684,710.707,374.535,713.606,383.378z"/>
				<path style="fill:#FCC37E;" d="M704.391,356.015c0.929,0.933,1.081,1.6,0.478,2.275c-9.208,5.059-18.352,10.228-27.443,15.495
					c-11.887,6.752-24.01,13.071-36.141,19.367c-2.496,0.992-5.326,3.362-8.06,2.577c-0.532-0.014-0.796-0.721-0.408-1.081
					c-0.001-0.001-0.001-0.002-0.002-0.002c13.125-15.294,27.105-29.822,42.077-43.311c0.527-1.214,2.513-1.006,3.641-1.37
					C687.442,348.409,697.197,350.476,704.391,356.015z"/>
				<path style="fill:#FCC37E;" d="M710.08,371.762c0.952,2.909,1.089,5.113-2.143,6.354c-9.188,4.744-18.557,9.14-27.885,13.605
					c-11.217,5.414-22.831,10.002-33.69,16.137c-1.943,0.896-5.181,2.849-6.11,2.209c-0.637-0.439-1.707-2.537-2.223-3.767
					c-0.43-0.884,0.794-1.075,1.335-1.43c11.937-6.32,24.166-12.051,36.097-18.38c10.821-5.935,22.309-10.619,33.122-16.517
					c0.493-0.302,1.043,0.177,0.969,0.65C709.806,370.913,709.922,371.434,710.08,371.762z"/>
				<path style="fill:#6C1B00;" d="M643.335,415.205c-0.37-0.12-0.466-0.64-0.17-0.884c6.014-2.464,11.829-5.421,17.659-8.303
					c17.205-7.98,34.396-18.665,51.534-25.482c0.31,1.05-3.084,1.978-3.859,2.585c-9.407,4.486-18.634,9.339-27.889,14.127
					C668.212,403.199,656.129,410.271,643.335,415.205z"/>
				<path style="fill:#6C1B00;" d="M635.672,399.828c-1.513-0.796,0.839-1.242,1.459-1.547
					c23.974-9.764,46.759-24.014,69.747-34.796c0.471,1.065-2.833,1.985-3.536,2.627c-13.638,7.2-27.238,14.473-40.955,21.521
					C653.681,392.072,644.774,396.337,635.672,399.828z"/>
			</g>
			<g>
				<g>
					<path style="fill:#6E9339;" d="M671.546,346.75c-6.593,19.965,27.91,18.287,14.03-10.97c-1.375-1.076-3.969,1.559-5.333,2.168
						C676.816,340.247,673.345,342.933,671.546,346.75z"/>
					<path style="fill:#6C1B00;" d="M673.074,344.648c-0.424-3.554,6.124,6.226,6.117,7.127c1.195-4.068,0.95-8.254-0.932-12.101
						c0.831-2.629,2.487,4.589,2.503,5.35c0.213-0.758,3.89-12.259,4.497-8.977c-1.356,2.733-2.494,5.568-3.402,8.477
						c1.447-1.393,3.504-2.126,5.41-2.739c0.555-0.179,0.867,0.674,0.309,0.854c-2.764,0.89-5.911,2.128-6.644,5.258
						c-0.314,1.341-0.62,2.674-0.85,4.032c0.485-0.673,10.36-4.195,8.029-1.709c-2.907,0.347-5.713,1.322-8.206,2.858
						c-0.317,0.199,0.039,0.925-0.374,1.12c-0.184,0.087-0.398-0.025-0.519-0.165c-0.208-0.241,0.009-0.46-0.074-0.651
						C677.538,350.148,675.682,347.076,673.074,344.648z"/>
				</g>
				<g>
					<path style="fill:#F72D2D;" d="M677.178,350.998c6.694,6.397,2.455,14.247-4.71,17.861c-8.525,4.891-17.734,3.758-17.964-7.725
						c0.149-5.315-1.741-22.722,6.885-20.368C667.538,342.308,672.961,346.36,677.178,350.998z"/>
					<path style="fill:#6C1B00;" d="M659.24,357.492c-0.044-0.736-0.255-2.767,1.026-2.019c0.391,0.552,0.05,1.346,0.184,1.991
						C660.453,358.258,659.279,358.286,659.24,357.492z"/>
					<path style="fill:#6C1B00;" d="M664.076,349.176c-0.468-0.546-2.071-1.539-0.604-1.954c0.663,0.096,1.096,0.748,1.545,1.191
						C665.506,349.037,664.6,349.777,664.076,349.176z"/>
					<path style="fill:#6C1B00;" d="M671.105,351.356c-0.604-0.2-0.915-0.872-1.394-1.264c-0.772-0.546-0.036-1.625,0.691-1.026
						C670.929,349.625,672.73,351.076,671.105,351.356z"/>
					<path style="fill:#6C1B00;" d="M667.948,358.864c-0.419-0.211-0.512-0.755-0.746-1.13c-0.268-0.503-0.589-1.239,0.197-1.441
						c0.871-0.033,0.871,1.218,1.323,1.759C668.966,358.521,668.422,359.076,667.948,358.864z"/>
					<path style="fill:#6C1B00;" d="M662.518,365.224c-0.042-0.61-0.414-1.774,0.492-1.869c0.879,0.032,0.538,1.103,0.704,1.677
						C663.821,365.817,662.665,366.007,662.518,365.224z"/>
					<path style="fill:#6C1B00;" d="M674.68,357.51c-0.656-0.772,0.513-1.627,0.974-0.72
						C676.189,357.46,675.172,358.222,674.68,357.51z"/>
					<path style="fill:#6C1B00;" d="M658.02,348.917c-0.146-0.931,1.088-1.195,1.216-0.251
						C659.375,349.608,658.141,349.855,658.02,348.917z"/>
				</g>
			</g>
			<g>
				<path style="fill:#FF9000;" d="M116.41,384.754c-7.368,11.431-25.177,3.532-34.734-1.066
					c-33.851-18.806-61.14-48.258-84.279-78.894c-10.157-12.282-50.963-93.877-8.811-79.507c-0.067-0.02-0.133-0.04-0.2-0.06
					c43.621,15.839,81.405,62.88,106.494,100.703C104.016,342.301,124.353,365.124,116.41,384.754z"/>
				<path style="fill:#FFE4AA;" d="M51.305,332.352c-5.732-18.173-6.88-38.11-9.06-56.948c-0.317-1.089-0.85-3.76,0.692-2.603
					c2.745,4.72,4.049,11.082,5.558,16.28c2.749,9.329,4.034,18.498,4.781,29.484c0.417,6.139,0.919,12.473-0.004,19.277
					C53.435,336.642,51.626,333.152,51.305,332.352z"/>
				<path style="fill:#FFE4AA;" d="M20.81,310.292c-5.104-15.852-7.356-31.54-10.023-48.783c-0.44-2.843-1.505-15.137-1.505-15.137
					s0.897,0.535,1.148,0.978c2.205,3.831,3.925,7.919,5.442,12.064c6.032,16.469,6.4,38.091,7.223,56.456
					C23.072,315.335,21.011,310.789,20.81,310.292z"/>
				<path style="fill:#FFE4AA;" d="M81.411,362.419c-6.482-14.124-5.416-31-6.644-46.131c-0.334-4.22,0.832-5.332,1.701-2.87
					c2.964,6.686,4.583,17.234,5.225,25.798c0.538,7.177,0.247,20.925,0.252,20.886C81.859,360.81,81.776,361.788,81.411,362.419z"
					/>
				<path style="fill:#FFE4AA;" d="M-16.37,237.099c5.847,7.608,8.753,20.359,10.665,30.43c0.093,0.489,0.901,4.115,0.422,4.253
					c-0.71,0.205-3.665-6.964-4.503-8.06c-2.296-3.918-3.949-8.697-4.997-13.109c-0.799-3.422-1.889-9.174-2.364-12.65
					C-17.411,237.079-17.402,236.71-16.37,237.099z"/>
				<path style="fill:#6C1B00;" d="M-8.853,263.819c0.875,1.801,1.774,3.592,2.519,5.451c-1.938-10.698-3.696-21.86-9.939-31.009
					C-15.439,247.17-12.866,255.827-8.853,263.819z M-4.988,273.579c-0.319,0.238-0.731,0.279-1.132-0.084
					c-0.491-0.444-0.46-1.33-0.767-1.888c-0.746-2.037-1.629-4.017-2.59-5.962c-4.777-9.092-7.494-19.039-8.427-29.245
					c-0.139-0.564,0.104-1.342,0.805-1.273c6.045,6.529,8.459,15.957,10.318,24.533c0.193,2.241,0.935,4.494,1.393,6.691
					C-5.03,268.066-3.13,272.191-4.988,273.579z"/>
				<path style="fill:#6C1B00;" d="M9.104,244.785c-0.51-0.107-1.103,0.067-1.005,0.717c3.665,21.624,5.047,43.657,12.255,64.552
					c0.555,1.609,0.679,3.34,1.158,4.979c0.104,0.354,0.23,0.723,0.509,0.964c0.069,0.059,0.147,0.112,0.193,0.19
					c0.221,0.372,0.005,1.668,0.907,1.462c1.207-0.274,0.444-7.384,0.488-8.938c-1.207-15.521-1.014-31.521-6.28-46.366
					c-0.952-1.966-1.592-4.127-2.383-6.16c-1.157-2.977-2.316-5.988-3.791-8.825c-0.408-0.784-0.88-1.871-1.611-2.391
					C9.424,244.883,9.268,244.819,9.104,244.785z M19.061,273.917c2.06,12.713,2.762,25.633,3.274,38.487
					c-1.965-8.038-4.736-15.883-6.341-24.023c-2.924-13.185-3.59-26.73-5.965-40.003C13.864,256.54,17.367,265.02,19.061,273.917z"
					/>
				<path style="fill:#6C1B00;" d="M41.888,270.909c-0.075,0.018-0.147,0.048-0.217,0.092c-0.587,0.371-0.264,1.147-0.222,1.701
					c1.781,17.236,2.121,34.698,7.003,51.474c0.686,2.819,1.446,5.619,2.239,8.409c0.404,1.421,0.817,2.839,1.233,4.256
					c0.306,1.042,0.482,2.802,1.195,3.652c0.184,0.219,1.166,0.999,1.174,0.343c0.104-8.959,0.025-17.898-0.762-26.829
					c-0.805-9.127-2.255-18.222-4.707-27.058c-1.103-3.974-2.498-7.814-3.938-11.674c-0.457-1.224-0.681-2.664-1.552-3.691
					C43.029,271.226,42.407,270.783,41.888,270.909z M52.656,319.786c0.21,2.943,0.202,5.894,0.164,8.841
					c0.046,0.684-0.057,3.65,0.022,6.522c-4.306-14.655-7.661-29.625-8.541-44.911c-0.277-5.32-0.675-10.635-1.286-15.931
					C49.05,288.648,51.581,304.331,52.656,319.786z"/>
				<path style="fill:#6C1B00;" d="M74.642,309.359c-0.329,0.234-0.501,0.773-0.539,1.149c-0.017,0.167-0.007,0.336,0.002,0.504
					c0.531,9.366,0.783,18.764,1.709,28.102c0.794,8.012,2.154,16.003,4.741,23.645c0.194,0.573,0.869,2.967,1.847,2.446
					c0.668-0.356,0.187-1.601,0.15-2.174c-0.64-17.651,1.469-36.177-6.509-52.604c-0.176-0.363-0.463-1.073-0.908-1.169
					C74.943,309.216,74.779,309.261,74.642,309.359z M80.992,339.523c0.192,6.674-0.209,13.357,0.019,20.028
					c-2.387-7.939-3.426-16.32-4.351-24.527c-0.514-1.242-0.195-15.549-0.961-22.04C79.021,321.396,80.716,330.496,80.992,339.523z"
					/>
			</g>
			<g>
				<path style="fill:#FF9000;" d="M805.281,50.493c7.231,19.628-47.834,60.301-61.796,73.348
					c-20.412,16.008-51.761,47.87-77.804,49.307c-5.805-0.377-13.332-2.668-15.604-8.533c-3.3-10.452,3.528-21.789,8.804-30.659
					c22.195-35.515,56.098-62.784,93.685-80.677C765.187,48.668,798.755,31.807,805.281,50.493z"/>
				<path style="fill:#6C1B00;" d="M671.894,151.555c-4.439-5.149-4.257-26.185-2.024-32.859c0.463-0.815,1.481-0.101,0.971,0.688
					c-2.175,7.386-1.675,23.672,1.221,30.804c3.348-13.844,4.473-28.279,6.452-42.38c0.031-0.737,1.162-0.751,1.157,0.026
					c-1.061,9.531-2.474,19.034-3.847,28.528C675.084,138.962,674.61,151.525,671.894,151.555z"/>
				<path style="fill:#6C1B00;" d="M699.004,133.684c-6.274-6.653-4.129-36.195-1.342-45.152c0.338-1.272,1.775-0.521,1.028,0.562
					c-2.974,12.579-4.233,31.272,0.429,43.425c2.616-2.478,3.169-15.721,3.819-19.877c1.32-10.119,2.838-20.205,3.816-30.365
					c0.106-0.72,1.232-0.626,1.149,0.155c-0.61,4.693-0.554,9.484-1.566,14.106C704.926,102.972,703.983,132.907,699.004,133.684z"
					/>
				<path style="fill:#6C1B00;" d="M731.406,109.674c-5.308-7.599-1.051-38.362,3.456-46.806c0.552-1.705,2.159-0.961,1.305,0.037
					c-5.241,10.487-7.889,34.459-4.414,45.623c3.152-5.108,3.153-11.639,4.627-17.371c1.232-6.05,2.337-12.121,3.458-18.191
					c1.006-4.653,1.867-9.335,2.685-14.023c-0.028-0.834,1.231-0.908,1.168,0.008c-1.931,10.763-4.072,21.485-6.138,32.221
					C736.434,94.65,735.349,109.626,731.406,109.674z"/>
				<path style="fill:#6C1B00;" d="M764.954,76.429c-2.808-2.201-1.114-12.473-0.973-16.044c0.279-1.256,1.92-14.702,3.744-12.474
					c0.254,0.457-0.25,1.45-0.37,1.92c-1.587,6.201-3.016,12.774-2.81,19.258c0.034,1.086,0.115,2.171,0.253,3.249
					c0.041,0.321,0.674,2.879,0.543,2.987c1.763-1.444,2.919-7.567,3.641-9.969c1.516-6.33,2.814-12.717,3.895-19.131
					c3.099-3.585-2.203,15.685-2.157,16.899C769.729,65.838,768.393,76.766,764.954,76.429z"/>
			</g>
			<g>
				<path style="fill:#FF9000;" d="M585.248-28.921c1.233-1.584,4.618,0.2,6.177,0.714c24.154,11.081,45.221,27.294,65.346,44.423
					c2.243,2.007,4.465,4.04,6.671,6.09c3.644,2.704,9.632,5.383,8.919,10.785c-0.991,2.776-5.945,2.555-8.401,2.78
					c-5.39,0.356-10.754,1.029-16.098,1.797c-11.877,0.685-38.216,13.297-47.078,6.366c-4.659-4.846-5.047-11.791-6.552-17.993
					c-2.095-9.09-4.301-18.19-4.621-27.558c-0.472-6.907-2.461-13.596-3.925-20.335C585.332-24.111,583.791-26.815,585.248-28.921z"
					/>
				<g>
					<path style="fill:#FFE4AA;" d="M613.745-6.138c0.291,1.131-1.588,1.805-2.07,0.582C611.088-7.045,613.613-7.787,613.745-6.138z
						"/>
					<path style="fill:#FFE4AA;" d="M610.546,9.207c0.762,1.15-1.511,2.147-1.553,0.682C608.584,8.865,610.026,8.234,610.546,9.207z
						"/>
					<path style="fill:#FFE4AA;" d="M633.807,26.773c0.872,0.872-0.629,2.394-1.546,1.323
						C631.401,27.091,633.106,25.744,633.807,26.773z"/>
					<path style="fill:#FFE4AA;" d="M648.205,23.095c0.098,0.902-1.351,1.185-1.419,0.203
						C646.789,22.497,648.083,22.202,648.205,23.095z"/>
					<path style="fill:#FFE4AA;" d="M626.026,26.244c-0.566,0.591-1.482-0.301-0.906-0.882
						C625.686,24.771,626.602,25.663,626.026,26.244z"/>
					<path style="fill:#FFE4AA;" d="M638.617,12.636c-0.566,0.591-1.482-0.301-0.906-0.882
						C638.277,11.162,639.193,12.054,638.617,12.636z"/>
					<path style="fill:#FFE4AA;" d="M600.783-14.233c-0.566,0.591-1.482-0.301-0.906-0.882
						C600.443-15.707,601.359-14.815,600.783-14.233z"/>
					<path style="fill:#FFE4AA;" d="M623.631,17.1c1.546-1.731,4.373-0.573,5.081,1.405C630.235,24.249,619.808,21.546,623.631,17.1
						z"/>
					<path style="fill:#FFE4AA;" d="M610.821,18.813c-0.742-0.835-0.309-2.078,0.414-2.67c1.495-1.302,4.948-0.656,6.024,0.942
						C619.145,20.816,612.716,20.945,610.821,18.813z"/>
					<path style="fill:#FFE4AA;" d="M629.237,8.326c2.588-2.814,4.566,2.9,2.545,4.592c-0.464,0.635-2.271,0.925-2.741-0.259
						C628.447,11.164,628.333,9.669,629.237,8.326z"/>
					<path style="fill:#FFE4AA;" d="M616.217,6.465c-0.801-3.875,6.598-1.673,6.81,0.953
						C623.221,10.666,616.851,8.164,616.217,6.465z"/>
					<path style="fill:#FFE4AA;" d="M617.646,27.656c-1.076-1.938,1.881-3.622,3.047-1.987
						C622.484,27.895,618.801,29.735,617.646,27.656z"/>
					<path style="fill:#FFE4AA;" d="M637.83,20.657c-0.429-2.849,3.568-3.465,4.734-1.137c1.817,2.95-0.831,4.988-3.447,3.008
						C638.406,22.462,637.975,21.266,637.83,20.657z"/>
					<path style="fill:#FFE4AA;" d="M615.319,0.524c-2.7-1.322,0.683-4.866,2.795-2.471C620.121,0.261,617.279,2.165,615.319,0.524z
						"/>
					<path style="fill:#FFE4AA;" d="M603.898,3.013c0.942-1.368,3.444-1.607,4.279-0.015c1.053,2.22-2.768,3.223-4.023,1.893
						C603.352,4.696,603.53,3.536,603.898,3.013z"/>
					<path style="fill:#FFE4AA;" d="M602.202-6.523c0.411-2.254,2.776-2.154,3.832-0.724c1.478,1.273,1.51,4.467-1.098,3.631
						C604.106-3.892,602.004-5.439,602.202-6.523z"/>
				</g>
				<g>
					<path style="fill:#6C1B00;" d="M667.787,28.807c-6.38,6.673-18.53,5.357-27.026,7.645c-3.953,0.808-7.901,1.638-11.847,2.482
						c-7.342,1.375-15.531,4.295-22.733,1.059c-8.243-5.307-10.507-16.278-11.142-25.44c-0.534-7.402-2.167-14.588-3.278-21.902
						c-0.4-3.536-5.069-19.5-0.902-20.289c0.216,0.148,0.304,0.486,0.133,0.703c-2.366,4.634,1.16,14.305,1.794,19.569
						c1.735,9.537,3.12,19.108,3.982,28.759c3.016,13.114,8.082,21.891,23.036,18.334c8.748-1.464,17.321-3.861,26.093-5.215
						c5.847-1.011,12.001-1.208,17.464-3.688c1.215-0.644,2.644-1.231,3.478-2.35c0.237-0.518,1.084-0.243,0.944,0.339
						L667.787,28.807z"/>
					<path style="fill:#6C1B00;" d="M592.415-22.063c1.726,8.325,5.543,16.082,6.735,24.546c0.855,6.069,1.419,12.359,3.298,18.218
						c0.822,2.564,1.942,5.034,3.441,7.275c2.258,3.376,5.389,6.2,9.377,7.319c3.57,1.001,7.371,0.597,11.035,0.033
						c5.537-0.853,11.014-2.052,16.487-3.251c4.616-1.011,9.233-2.022,13.849-3.033c2.661-0.583,5.325-1.166,7.935-1.946
						c0.34-0.101,0.7-0.221,0.919-0.5c0.219-0.279,0.198-0.769-0.125-0.915c-0.225-0.102-0.485-0.003-0.712,0.094
						c-6.512,2.757-13.728,3.21-20.644,4.685c-4.957,1.057-9.791,2.65-14.771,3.595c-5.843,1.11-12.643,1.669-17.837-1.816
						c-1.625-1.09-2.975-2.442-4.117-4.025c-0.841-1.166-1.576-2.407-2.208-3.698c-1.248-2.551-2.085-5.282-2.699-8.049
						c-1.259-5.675-1.624-11.501-2.784-17.194c-0.312-1.53-0.681-3.049-1.139-4.542c-1.587-6.948-5.613-13.651-5.155-20.911
						c0.047-0.274-0.12-0.543-0.392-0.599C591.56-26.629,592.336-23.142,592.415-22.063z"/>
					<path style="fill:#6C1B00;" d="M591.463-19.809c0.867,10.043,3.698,19.771,5.884,29.568c0.635,2.847,1.006,5.743,1.705,8.581
						c0.732,2.968,1.655,5.916,3.021,8.659c1.267,2.544,2.951,4.942,5.244,6.66c2.481,1.86,5.252,2.478,8.281,2.662
						c0.726,0.044,1.444,0.145,2.173,0.163c3.719,0.094,7.515-0.47,11.193-0.96c3.807-0.507,7.601-1.111,11.413-1.586
						c0.913-0.114,1.827-0.223,2.743-0.317c5.261-0.54,10.702-0.484,15.637-2.689c2.429-1.026,5.605-2.289,7.013-4.628
						c0.211-0.539-0.497-0.944-0.865-0.533c-0.364,0.73-1.033,1.244-1.675,1.733c-2.676,1.841-5.795,2.952-8.903,3.829
						c-3.38,0.859-6.925,0.802-10.377,1.184c-7.554,0.742-15.039,2.407-22.624,2.798c-3.25,0.168-6.708,0.475-9.853-0.54
						c-2.573-0.831-4.752-2.481-6.402-4.605c-3.567-4.592-4.858-10.667-5.942-16.25c-0.424-2.184-0.672-4.457-1.239-6.608
						c-1.815-6.878-3.447-13.792-4.575-20.821c-0.699-3.99-1.397-8.115-0.448-12.132C591.487-28.401,591.214-20.829,591.463-19.809z
						"/>
				</g>
			</g>
			<g>
				<path style="fill:#FF9000;" d="M33.338,477.174c-1.475,1.361-4.523-0.952-5.978-1.714
					c-22.018-14.88-40.152-34.318-57.207-54.506c-1.885-2.346-3.745-4.716-5.586-7.098c-3.153-3.263-8.622-6.885-7.037-12.098
					c1.432-2.576,6.283-1.548,8.743-1.37c5.376,0.53,10.778,0.743,16.175,0.859c11.829,1.265,39.876-6.873,47.485,1.414
					c3.805,5.542,3.052,12.458,3.524,18.822c0.581,9.31,1.27,18.649,0.054,27.943c-0.664,6.892,0.205,13.815,0.549,20.704
					C34.041,472.415,35.119,475.335,33.338,477.174z"/>
				<g>
					<path style="fill:#FFE4AA;" d="M8.948,450.04c-0.102-1.164,1.862-1.521,2.137-0.236C11.42,451.369,8.808,451.689,8.948,450.04z
						"/>
					<path style="fill:#FFE4AA;" d="M14.611,435.424c-0.564-1.259,1.841-1.871,1.643-0.419
						C16.491,436.082,14.965,436.469,14.611,435.424z"/>
					<path style="fill:#FFE4AA;" d="M-5.466,414.293c-0.718-1.003,1.011-2.259,1.742-1.052
						C-3.04,414.373-4.942,415.422-5.466,414.293z"/>
					<path style="fill:#FFE4AA;" d="M-20.272,415.568c0.051-0.906,1.527-0.948,1.433,0.032
						C-18.972,416.389-20.297,416.469-20.272,415.568z"/>
					<path style="fill:#FFE4AA;" d="M2.124,416.086c0.655-0.491,1.413,0.539,0.75,1.018C2.218,417.595,1.46,416.565,2.124,416.086z"
						/>
					<path style="fill:#FFE4AA;" d="M-12.522,427.454c0.655-0.491,1.413,0.539,0.75,1.018
						C-12.427,428.963-13.185,427.933-12.522,427.454z"/>
					<path style="fill:#FFE4AA;" d="M20.412,460.145c0.655-0.491,1.413,0.539,0.75,1.018
						C20.506,461.655,19.748,460.625,20.412,460.145z"/>
					<path style="fill:#FFE4AA;" d="M2.992,425.499c-1.808,1.455-4.407-0.15-4.783-2.216
						C-2.354,417.367,7.491,421.737,2.992,425.499z"/>
					<path style="fill:#FFE4AA;" d="M15.91,425.903c0.596,0.945-0.035,2.1-0.845,2.566c-1.688,1.04-4.989-0.161-5.789-1.913
						C8.026,422.565,14.389,423.489,15.91,425.903z"/>
					<path style="fill:#FFE4AA;" d="M-3.972,433.238c-3.013,2.353-4.03-3.607-1.76-4.946c0.561-0.551,2.392-0.541,2.662,0.704
						C-2.729,430.568-2.861,432.062-3.972,433.238z"/>
					<path style="fill:#FFE4AA;" d="M8.568,437.203c0.157,3.953-6.782,0.572-6.563-2.053C2.345,431.913,8.22,435.423,8.568,437.203z
						"/>
					<path style="fill:#FFE4AA;" d="M10.622,416.063c0.745,2.088-2.447,3.266-3.331,1.462
						C5.888,415.037,9.822,413.823,10.622,416.063z"/>
					<path style="fill:#FFE4AA;" d="M-10.435,419.669c-0.043,2.88-4.086,2.836-4.857,0.348c-1.31-3.207,1.635-4.785,3.892-2.405
						C-10.708,417.794-10.478,419.044-10.435,419.669z"/>
					<path style="fill:#FFE4AA;" d="M8.483,443.21c2.448,1.746-1.469,4.689-3.161,1.981C3.703,442.685,6.818,441.272,8.483,443.21z"
						/>
					<path style="fill:#FFE4AA;" d="M20.157,442.622c-1.153,1.196-3.66,1.022-4.224-0.684c-0.676-2.362,3.257-2.727,4.278-1.21
						C20.971,441.05,20.606,442.165,20.157,442.622z"/>
					<path style="fill:#FFE4AA;" d="M20.272,452.306c-0.774,2.157-3.091,1.671-3.899,0.088c-1.25-1.498-0.759-4.654,1.677-3.403
						C18.824,449.399,20.644,451.27,20.272,452.306z"/>
				</g>
				<g>
					<path style="fill:#6C1B00;" d="M-38.657,406.732c7.385-5.54,19.157-2.257,27.912-3.124c4.032-0.151,8.062-0.325,12.093-0.512
						c7.468-0.157,16.024-1.699,22.6,2.67c7.265,6.583,7.706,17.776,6.834,26.918c-0.682,7.389-0.246,14.746-0.346,22.143
						c-0.183,3.554,1.814,20.067-2.426,20.163c-0.189-0.182-0.22-0.529-0.017-0.716c3.091-4.185,1.193-14.302,1.428-19.6
						c-0.153-9.692,0.045-19.361,0.771-29.023c-0.832-13.431-4.396-22.918-19.73-21.853c-8.87,0.014-17.72,0.978-26.594,0.881
						c-5.933,0.042-12.037-0.769-17.832,0.784c-1.304,0.437-2.809,0.782-3.815,1.75c-0.319,0.472-1.11,0.063-0.876-0.489
						L-38.657,406.732z"/>
					<path style="fill:#6C1B00;" d="M27.388,469.237c-0.342-8.495-2.84-16.772-2.633-25.316c0.149-6.127,0.62-12.425-0.276-18.512
						c-0.392-2.664-1.093-5.284-2.206-7.74c-1.676-3.7-4.303-6.998-8.055-8.753c-3.358-1.571-7.174-1.794-10.881-1.836
						c-5.602-0.064-11.201,0.225-16.796,0.513c-4.719,0.243-9.439,0.486-14.158,0.729c-2.72,0.14-5.444,0.28-8.147,0.623
						c-0.352,0.044-0.727,0.103-0.988,0.343c-0.261,0.24-0.321,0.726-0.027,0.923c0.205,0.137,0.478,0.082,0.717,0.024
						c6.875-1.655,14.068-0.923,21.132-1.248c5.063-0.233,10.093-1.014,15.16-1.133c5.946-0.14,12.746,0.42,17.3,4.707
						c1.425,1.341,2.535,2.896,3.404,4.644c0.64,1.288,1.162,2.632,1.574,4.009c0.815,2.721,1.193,5.551,1.347,8.382
						c0.315,5.804-0.278,11.612-0.063,17.418c0.058,1.56,0.173,3.12,0.382,4.667c0.43,7.114,3.307,14.384,1.668,21.473
						c-0.091,0.262,0.029,0.556,0.289,0.655C27.484,473.881,27.289,470.315,27.388,469.237z"/>
					<path style="fill:#6C1B00;" d="M28.695,467.169c0.786-10.05-0.416-20.109-0.972-30.132c-0.162-2.912-0.053-5.83-0.28-8.744
						c-0.237-3.048-0.666-6.107-1.565-9.036c-0.834-2.716-2.104-5.358-4.085-7.428c-2.144-2.24-4.777-3.303-7.735-3.979
						c-0.709-0.162-1.4-0.379-2.117-0.516c-3.653-0.701-7.491-0.764-11.2-0.883c-3.839-0.122-7.681-0.146-11.519-0.3
						c-0.92-0.037-1.839-0.079-2.758-0.136c-5.279-0.328-10.637-1.272-15.866,0.097c-2.564,0.616-5.904,1.342-7.675,3.42
						c-0.296,0.497,0.337,1.012,0.766,0.668c0.479-0.661,1.223-1.058,1.936-1.436c2.941-1.379,6.2-1.965,9.409-2.322
						c3.475-0.295,6.963,0.34,10.431,0.528c7.573,0.503,15.23,0.084,22.777,0.937c3.234,0.366,6.695,0.627,9.632,2.143
						c2.403,1.24,4.282,3.224,5.563,5.59c2.768,5.113,3.049,11.318,3.206,17.003c0.061,2.224-0.066,4.507,0.142,6.722
						c0.667,7.082,1.146,14.17,1.11,21.289c0.037,4.051,0.052,8.234-1.541,12.042C27.267,475.642,28.774,468.216,28.695,467.169z"/>
				</g>
			</g>
			<g>
				<g>
					<path style="fill:#FF9000;" d="M168.817,434.444c8.492,5.017,12.874,14.71,15.297,23.906
						c7.54,30.297-20.809,57.193-50.017,57.642c-24.219,2.384-46.66-20.729-40.025-44.95c3.333-14.16,19.145-27.111,33.708-20.513
						C131.671,433.581,154.382,425.147,168.817,434.444z"/>
					<path style="fill:#FFE4AA;" d="M154.318,498.769c-12.188,6.96-29.334,6.588-40.375-2.427
						c-6.532-5.258-10.691-15.355-7.324-23.418c1.142-2.969,6.883-8.135,9.801-5.237c0.555,3.472,2.949,6.873,6.314,8.117
						c2.717,0.93,5.713,0.125,8.041-1.399c3.741-2.587,3.391-5.773,3.626-9.541c0.058-0.357,0.297-0.633,0.596-0.758
						c1.492-1.313,2.535,3.045,7.145,3.519c6.075,0.657,13.033-5.69,11.823-11.903c-0.484-2.473-0.702-4.775-2.762-6.309
						c-5.696-4.241,4.864-6.828,10.678-3.832c-0.002-0.001-0.004-0.003-0.006-0.004c0.552,0.442,1.118,0.864,1.671,1.3
						c-0.017-0.012-0.033-0.025-0.049-0.038c7.421,6.855,10.501,18.302,8.09,28.046c0-0.004,0.001-0.008,0.002-0.012
						C169.09,484.417,163.001,493.821,154.318,498.769z"/>
					<g>
						<path style="fill:#FFE4AA;" d="M171.585,474.888C171.585,474.888,171.585,474.888,171.585,474.888
							c-0.001,0.012-0.005,0.025-0.006,0.037C171.581,474.913,171.583,474.9,171.585,474.888z"/>
						<path style="fill:#FFE4AA;" d="M165.102,448.342c0.018,0.018,0.036,0.037,0.055,0.056
							C165.139,448.38,165.12,448.361,165.102,448.342z"/>
						<path style="fill:#FF9000;" d="M117.511,485.226c0.434-3.488,5.301-4.259,6.901-1.178c1.122,2.006,0.82,5.044-1.671,5.779
							C119.606,490.959,116.778,488.511,117.511,485.226z"/>
						<path style="fill:#FF9000;" d="M114.166,474.129c1.514,0.881,1.501,3.02-0.027,3.876c-1.497,1.202-4.571-0.482-3.16-2.321
							C111.322,474.38,112.923,473.47,114.166,474.129z"/>
						<path style="fill:#FF9000;" d="M112.686,483.322c0.906,0.885,0.429,2.557-0.763,2.92c-1.065,0.435-2.656-0.47-2.081-1.693
							C109.76,483.089,111.661,482.41,112.686,483.322z"/>
						<path style="fill:#FF9000;" d="M132.289,490.892c2.786,2.101,1.067,5.962-2.152,6.212c-2.44,0.281-4.388-2.373-3.402-4.617
							C126.781,489.975,130.645,489.527,132.289,490.892z"/>
						<path style="fill:#FF9000;" d="M141.982,482.807c2.644,1.776,1.956,6.103-1.29,6.662c-4.475,1.023-5.773-5.413-1.935-7.042
							C139.682,481.713,141.119,482.162,141.982,482.807z"/>
						<path style="fill:#FF9000;" d="M154.045,467.978c4.637-0.046,5.047,7.707,0.291,8.014
							C149.371,476.449,149.215,467.921,154.045,467.978z"/>
						<path style="fill:#FF9000;" d="M160.148,455.564c2.884-1.2,5.337,3.08,2.445,4.602
							C158.028,461.826,157.613,455.74,160.148,455.564z"/>
						<path style="fill:#FF9000;" d="M159.992,446.803c2.93,0.452,1.898,4.792-0.865,4.262
							C156.364,450.489,157.473,446.651,159.992,446.803z"/>
						<path style="fill:#FF9000;" d="M164.337,467.734c3.172-1.835,5.613,4.004,1.968,4.781
							C163.469,473.268,161.323,468.788,164.337,467.734z"/>
						<path style="fill:#FF9000;" d="M168.125,460.295c1.915,0.784,1.359,3.755-0.79,3.536c-0.959-0.03-1.678-0.974-1.413-1.917
							C165.55,460.871,167.229,459.876,168.125,460.295z"/>
						<path style="fill:#FF9000;" d="M160.436,478.642c1.654,0.84,1.668,3.128-0.169,3.754c-1.33,0.835-3.754-0.767-2.485-2.174
							C157.846,478.981,159.31,478.029,160.436,478.642z"/>
						<path style="fill:#FF9000;" d="M143.296,473.124c2.793,2.23-1.638,5.545-3.14,2.422
							C139.158,473.627,141.697,471.905,143.296,473.124z"/>
						<path style="fill:#FF9000;" d="M155.998,484.786c4.901,6.327-7.335,11.293-7.18,2.713
							C149.252,484.177,153.474,482.66,155.998,484.786z"/>
						<path style="fill:#FF9000;" d="M143.176,492.843c3.081-0.831,4.098,3.774,1.237,4.73
							C141.241,498.549,139.993,493.598,143.176,492.843z"/>
						<path style="fill:#FF9000;" d="M131.081,482.575c0.832,0.947,0.059,2.472-1.095,2.686c-1.374,0.427-2.792-1.786-1.421-2.572
							C129.141,481.889,130.448,481.778,131.081,482.575z"/>
					</g>
				</g>
				<path style="fill:#6C1B00;" d="M147.933,467.167c-13.768,5.702-24.643-16.572-15.626-26.378
					c0.218-0.194,0.568-0.163,0.756,0.057c0.432,0.767-0.798,1.386-1.016,2.109c-0.888,1.554-1.632,3.227-1.938,5
					c-0.627,5.631,1.889,11.343,5.485,15.541c7.532,7.917,19.019,1.517,17.727-8.906c-0.259-5.742-7.775-9.697-10.171-3.092
					c-0.297,2.779,1.741,3.939,4.134,2.676c0.254-0.145,0.577-0.096,0.742,0.159c0.587,1.569-4.43,2-5.198,0.201
					c-2.53-3.686,1.401-8.009,5.384-7.501C157.487,449.079,155.622,464.038,147.933,467.167z"/>
				<path style="fill:#6C1B00;" d="M129.811,474.823c-2.113,1.149-4.613,1.81-7.023,1.609c-4.306-0.771-8.632-6.441-5.668-10.494
					c1.696-2.259,5.895-1.841,7.278,0.535c0.253,0.475,0.594,1.48-0.212,1.577c-0.848-0.044-0.442-1.561-1.644-1.967
					c0.018,0.012,0.036,0.022,0.055,0.033c-8.527-3.087-5.766,9.007,0.907,9.304c7.969,0.039,12.27-7.116,8.63-14.156
					C133.056,457.168,137.854,471.152,129.811,474.823z"/>
				<path style="fill:#6C1B00;" d="M143.59,503.876c-10.239,2.551-22.223,0.433-29.928-7.074
					c-7.484-7.187-12.497-20.756-3.849-28.942c0.493-0.381,1.528-1.509,2.039-0.678c0.121,0.258,0.009,0.596-0.259,0.713
					c-0.529,0.252-0.956,0.668-1.382,1.063c-10.822,12.536,2.895,30.99,16.672,33.849c3.19,0.896,6.419,1.106,9.698,1.019
					c2.3-0.112,4.587-0.462,6.823-1.006C144.068,502.696,144.302,503.725,143.59,503.876z"/>
				<path style="fill:#6C1B00;" d="M162.567,492.296c-0.598-0.769,0.814-1.55,1.105-2.186c10.613-12.027,11.723-32.036-0.804-43.096
					c-0.341-0.508,0.387-1.124,0.827-0.678C177.089,457.959,175.482,481.647,162.567,492.296z"/>
			</g>
			<g>
				<path style="fill:#893C00;" d="M107.51,168.516c0.014,0.033,0.026,0.066,0.038,0.101c-3.843,3.346-6.934,7.543-9.603,11.866
					c-1.011,1.107-3.021,6.466-3.958,6.382l0,0.001c-1.601,1.007-4.409,0.563-6.08,0.513c-7.932-0.273-15.086-4.007-21.594-8.242
					c-2.981-1.851-7.342-4.484-7.162-8.419c2.426-6.823,4.821-14.041,4.634-21.369c-0.141-0.478,0.397-0.969,0.871-0.741
					c3.129,2.975,6.349,5.927,10.084,8.145c9.607,5.603,20.425,8.952,31.249,11.122l0-0.001c0.142,0.004,0.283,0.008,0.425,0.021
					l0-0.001c0.269,0.035,0.546,0.099,0.774,0.25l0,0.001C107.32,168.244,107.438,168.367,107.51,168.516z"/>
				<path style="fill:#6C1B00;" d="M112.938,161.697c0.041,3.267-2.316,6.367-5.507,7.132c-5.302,0.303-10.618-1.809-15.708-3.158
					c-9.802-3.107-19.369-7.567-26.541-15.133c-4.145-4.216-1.89-11.302,3.868-12.472c5.939-0.237,11.122,3.439,16.193,6.053
					C93.291,149.226,111.796,150.664,112.938,161.697z"/>
				<path style="fill:#6E9339;" d="M100.394,121.141c4.436,17.034-24.299,13.78-11.132-9.918c1.206-0.826,3.233,1.516,4.339,2.098
					C96.34,115.424,99.096,117.855,100.394,121.141z"/>
				<path style="fill:#FCC37E;" d="M104.913,161.254c-0.317-0.022-0.626-0.055-0.924-0.099c-0.056-0.005-0.114-0.011-0.17-0.016
					c-1.799-0.166-3.594-0.404-5.378-0.726c-0.394-0.072-0.787-0.147-1.182-0.225l-0.002-0.001
					c-5.717-1.159-11.251-3.2-16.157-6.402c-4.738-3.366-10.489-7.49-12.38-13.172c-0.315-4.867,3.425-8.212,8.204-7.551
					c1.626-3.93,6.658-5.724,10.513-4.124c0.034,0.012,0.068,0.027,0.101,0.041c0.326-0.19,0.662-0.377,1.009-0.558
					c1.883-0.989,4.011-1.761,6.101-1.344c0.133,0.025,0.266,0.055,0.4,0.091c0.313-0.057,0.497,0.015,0.605,0.159
					c0.254,0.318,1.24,0.92,1.407,1.322c5.726,14.059,13.255,11.947,13.457,18.424c0.01,0.344-0.001,0.713-0.041,1.107
					c-0.005,0.05-0.01,0.098-0.015,0.148c1.712,1.596,1.727,3.83,0.804,5.894c-0.271,0.944,0.916,2.064,0.729,3.088
					C111.399,160.589,107.876,161.46,104.913,161.254z"/>
				<path style="fill:#F72D2D;" d="M115.056,136.461c-2.128,6.051-5.162,7.46-8.171,7.204c-3.436-0.293-7.545-2.897-9.806-7.454
					c-1.103-2.223-1.9-5.202-1.334-7.782c2.03-4.948,7.278-4.847,11.889-5.489c0.77,0.089,6.391-0.828,8.081,1.049
					c0.21,0.209,0.37,0.459,0.533,0.706c-0.006,0.008-0.013,0.017-0.019,0.025C117.809,127.636,116.119,133.446,115.056,136.461z"/>
				<g>
					<path style="fill:#6C1B00;" d="M85.933,155.391c-8.098-4.417-11.006-15.27-7.097-23.427c0.209-0.158,0.269-0.461,0.125-0.684
						c-0.861-0.906-1.477,1.113-1.749,1.714c-2.864,8.512,0.027,18.786,8.144,23.232C85.915,156.594,86.467,155.772,85.933,155.391z
						"/>
					<path style="fill:#6C1B00;" d="M104.913,161.254c-0.317-0.022-0.626-0.055-0.924-0.099c-0.056-0.005-0.114-0.011-0.17-0.016
						c-0.368-10.632-13.216-11.447-16.445-21.528c0.102,8.822,8.364,12.874,11.067,20.801c-0.394-0.072-0.787-0.147-1.182-0.225
						l-0.002-0.001c-3.093-8.208-11.988-11.948-10.767-22.509c0.074-0.371,0.025-1.07,0.219-1.458
						c-0.124-1.464-0.078-3.091,0.18-4.911c0.107-0.575,0.229-1.639,0.548-2.371c0.14-0.32,0.32-0.576,0.554-0.701
						c0.271-0.064,0.459,0.026,0.555,0.184c0.142,0.225,0.099,0.591-0.13,0.831c-2.77,8.37,1.957,16.52,9.389,20.44
						C101.661,152.38,104.826,156.519,104.913,161.254z"/>
					<path style="fill:#6C1B00;" d="M110.476,148.181c-1.972-1.024-4.302-1.507-7.142-2.646c-7.563-2.86-11.795-10.78-8.686-18.458
						c0.012-0.028,0.021-0.054,0.033-0.082c0.031-0.324,0.38-0.548,0.692-0.439c0.315,0.184,0.358,0.46,0.28,0.772
						c-0.135,0.549-0.641,1.21-0.639,1.667c-1.477,6.142,1.599,12.309,7.299,14.958c2.559,1.351,5.587,1.882,8.204,3.12
						C110.527,147.418,110.516,147.786,110.476,148.181z"/>
				</g>
				<path style="fill:#6C1B00;" d="M112.159,127.895c-0.481-0.348-0.028-0.848,0.188-1.208c-0.012,0.02-0.024,0.039-0.035,0.059
					c0.253-0.757,1.281-0.48,1.003,0.28C113.069,127.433,112.759,128.266,112.159,127.895z"/>
				<path style="fill:#6C1B00;" d="M102.24,137.649c-0.481-0.348-0.028-0.848,0.188-1.208c-0.012,0.02-0.024,0.039-0.035,0.059
					c0.253-0.757,1.281-0.48,1.003,0.28C103.15,137.187,102.84,138.019,102.24,137.649z"/>
				<path style="fill:#6C1B00;" d="M112.415,133.113c0.316-0.494,0.327-1.848,1.181-1.524c0.63,0.211-0.138,1.891-0.483,2.147
					C112.734,133.937,112.249,133.516,112.415,133.113z"/>
				<path style="fill:#6C1B00;" d="M105.436,129.484c0.408-0.421,1.723-0.745,1.211-1.5c-0.351-0.564-1.809,0.57-1.978,0.965
					C104.561,129.364,105.082,129.738,105.436,129.484z"/>
				<path style="fill:#6C1B00;" d="M106.878,134.087c-0.474-0.475,0.215-1.008,0.54-1.339c0.534-0.343,1.082,0.436,0.585,0.826
					c0.023-0.016,0.041-0.037,0.062-0.057C107.74,133.834,107.398,134.516,106.878,134.087z"/>
				<path style="fill:#6C1B00;" d="M108.914,139.355c-0.532-0.399,0.062-0.931,0.282-1.329c0.109-0.321,0.436-0.562,0.769-0.392
					C110.726,137.962,109.533,139.856,108.914,139.355z"/>
				<path style="fill:#6C1B00;" d="M99.522,130.855c-0.452-0.718,1.184-1.468,1.372-0.586
					C100.99,130.845,99.859,131.374,99.522,130.855z"/>
				<path style="fill:#6C1B00;" d="M108.894,124.398c0.254-0.67,1.27-0.239,0.964,0.409
					C109.575,125.362,108.691,124.989,108.894,124.398z"/>
				<path style="fill:#6C1B00;" d="M62.368,175.595c2.527-6.64,4.917-13.467,5.384-20.627c0.052-0.334-0.15-0.752,0.164-0.993
					c0.241-0.191,0.664-0.091,0.773,0.203c0.001-0.001,0.002-0.001,0.003-0.002c0.188,4.135-1.036,8.209-2.073,12.154
					C66.265,167.075,63.152,179.139,62.368,175.595z"/>
				<path style="fill:#6C1B00;" d="M67.373,179.404c2.325-6.811,4.932-13.645,5.758-20.834c-0.015-0.414,0.114-0.905,0.646-0.8
					C75.753,157.44,67.894,184.673,67.373,179.404z"/>
				<path style="fill:#6C1B00;" d="M72.957,182.251c2.506-6.76,5.595-13.575,5.903-20.9c0.069-0.63,1.04-0.536,1.006,0.1
					c-0.071,4.138-1.371,8.15-2.551,12.068c-1.058,3.064-2.27,6.071-3.415,9.103C73.66,183.205,72.737,182.866,72.957,182.251z"/>
				<path style="fill:#6C1B00;" d="M78.091,184.831c2.673-6.831,5.275-13.738,7.092-20.859c0.08-0.7,1.169-0.493,0.987,0.204
					c-0.387,1.964-1.104,3.839-1.672,5.751C84.101,170.833,78.888,188.679,78.091,184.831z"/>
				<path style="fill:#6C1B00;" d="M83.682,186.134c2.15-6.93,4.588-14.137,9.186-19.864c-0.035,0.04-0.067,0.079-0.086,0.126
					c0.27-0.551,1.15-0.188,0.93,0.399c-0.522,0.671-1.13,1.376-1.564,2.051c-2.171,3.3-3.701,6.94-5.134,10.598
					c-0.897,2.326-1.757,4.555-2.347,6.935C84.51,186.989,83.552,186.773,83.682,186.134z"/>
				<path style="fill:#6C1B00;" d="M89.33,186.733c1.318-3.799,3.075-7.483,5.097-10.966c1.775-2.59,3.231-5.789,5.952-7.541
					c0.569-0.079,0.827,0.726,0.292,0.925c-4.947,4.843-7.849,11.426-10.346,17.74C90.218,187.479,89.281,187.344,89.33,186.733z"/>
				<path style="fill:#6C1B00;" d="M99.23,119.302c0.545-2.946-5.451,4.873-5.493,5.626c-0.78-3.463-0.35-6.946,1.429-10.06
					c-0.553-2.241-2.325,3.7-2.379,4.336c-0.137-0.645-2.592-10.451-3.275-7.742c0.986,2.356,1.785,4.786,2.387,7.265
					c-1.134-1.241-2.814-1.964-4.373-2.579c-0.454-0.179-0.76,0.517-0.304,0.697c2.262,0.892,4.824,2.095,5.269,4.75
					c0.191,1.138,0.374,2.267,0.494,3.414c-0.369-0.589-8.43-4.061-6.616-1.859c2.41,0.446,4.702,1.412,6.703,2.828
					c0.254,0.183-0.082,0.771,0.252,0.956c0.149,0.083,0.334,0,0.443-0.11c0.187-0.19,0.017-0.385,0.096-0.54
					C95.205,123.658,96.921,121.19,99.23,119.302z"/>
			</g>
			<g>
				<path style="fill:#FF9000;" d="M759.524,440.7c8.325,5.3,7.613,15.428-1.79,18.932c1.248,4.509-1.038,8.675-4.071,11.927
					c-7.894,9.007-21.018,12.938-32.666,10.64c-15.648-2.887-10.133-22.184,0.549-27.929c-4.384-9.816,6.187-16.952,14.856-18.217
					C744.248,434.693,753.083,435.737,759.524,440.7z"/>
				<path style="fill:#6C1B00;" d="M757.675,459.576c0.509-0.137,0.771,0.663,0.227,0.823c-11.408,3.47-28.761,5.252-36.714-5.957
					c-0.183-0.306,0.086-0.784,0.513-0.611c0.463,0.423,0.715,1.06,1.177,1.508C731.909,464.754,746.48,462.786,757.675,459.576z"/>
				<g>
					<path style="fill:#6C1B00;" d="M759.098,446.458c-0.679-0.298-0.14-1.355,0.437-0.784
						C759.986,445.98,759.601,446.673,759.098,446.458z"/>
					<path style="fill:#6C1B00;" d="M744.266,451.897c-0.124-0.304-0.454-0.507-0.872-0.281c-0.957,0.316-0.38,1.622,0.466,1.319
						C744.448,452.823,744.496,452.219,744.266,451.897z"/>
					<path style="fill:#6C1B00;" d="M745.794,439.23c-0.768-0.118-1.013-1.322-0.144-1.479
						C746.75,437.689,747.068,439.354,745.794,439.23z"/>
					<path style="fill:#6C1B00;" d="M731.599,443.947c-0.939,0.01-0.902-1.442,0.043-1.408
						C732.524,442.61,732.452,443.882,731.599,443.947z"/>
					<path style="fill:#6C1B00;" d="M714.692,466.997c-0.408-0.052-0.595-0.631-0.259-0.886c0.063-0.612,0.914-0.447,1.018,0.064
						C715.578,466.625,715.143,467.07,714.692,466.997z"/>
					<path style="fill:#6C1B00;" d="M731.228,450.355c2.086-2.499,7.75,2.547,3.186,3.319c-1.226-0.017-2.48-0.549-3.191-1.574
						C730.898,451.641,730.468,450.598,731.228,450.355z"/>
					<path style="fill:#6C1B00;" d="M736.681,439.284c1.944-1.03,5.246,2.152,2.983,3.673
						C738.033,443.763,735.06,440.512,736.681,439.284z"/>
					<path style="fill:#6C1B00;" d="M725.837,443.169c1.541-0.112,1.909,2.293,0.371,2.667c-1.267,0.516-2.3-1.93-1.031-2.342
						C725.326,443.285,725.589,443.199,725.837,443.169z"/>
					<path style="fill:#6C1B00;" d="M721.445,473.323c-4.612,0.822-1.384-6.359,1.862-4.273
						C724.291,470.61,723.073,472.712,721.445,473.323z"/>
					<path style="fill:#6C1B00;" d="M722.857,459.435c1.325,0.11,2.038,2.233,0.677,2.826c-1.245,0.735-3.142-1.275-1.853-2.219
						C721.669,459.516,722.45,459.387,722.857,459.435z"/>
					<path style="fill:#6C1B00;" d="M737.71,465.031c1.579,0.546,1.335,2.546-0.234,2.882c-0.964,0.304-2.71-0.78-1.847-1.8
						C735.725,465.156,736.873,464.691,737.71,465.031z"/>
					<path style="fill:#6C1B00;" d="M749.509,464.296c1.171,3.076-3.952,3.074-2.542,0.063
						C747.054,462.832,749.087,463.065,749.509,464.296z"/>
					<path style="fill:#6C1B00;" d="M748.574,444.797c2.612,1.161-0.247,4.322-1.942,2.399
						C745.642,446.072,747.29,444.291,748.574,444.797z"/>
					<path style="fill:#6C1B00;" d="M757.155,451.353c0.643,0.922-0.112,1.965-1.123,2.085c-1.159,0.407-3.262-0.91-2.248-2.115
						C754.484,450.048,756.436,450.147,757.155,451.353z"/>
					<path style="fill:#6C1B00;" d="M756.033,439.667c1.602,0.409,1.22,2.264-0.299,2.456c-0.723,0.25-2.001-0.622-1.368-1.324
						c-0.058-0.398,0.226-0.913,0.652-0.887C755.31,439.692,755.732,439.581,756.033,439.667z"/>
					<path style="fill:#6C1B00;" d="M728.465,464.939c0.817,0.187,1.096,1.576,0.229,1.888c-0.831,0.53-2.133-1.015-1.087-1.46
						C727.668,464.997,728.135,464.83,728.465,464.939z"/>
					<path style="fill:#6C1B00;" d="M731.138,474.711c-0.634,0.243-0.957-0.503-1.1-1.005c0.011-0.016,0.023-0.032,0.037-0.048
						c-0.086-0.098-0.094-0.217-0.104-0.338C730.604,471.201,733.082,474.142,731.138,474.711z"/>
					<path style="fill:#6C1B00;" d="M743.219,469.399c-0.329-0.104-0.848-0.062-0.928,0.345c-0.607,0.55,0.128,1.653,0.891,1.451
						C744.03,470.994,744.1,469.609,743.219,469.399z"/>
					<path style="fill:#6C1B00;" d="M736.886,475.087c-0.685,0.025-0.708-0.915-0.064-1.01
						C737.482,474.041,737.519,475.023,736.886,475.087z"/>
				</g>
			</g>
			<g>
				<path style="fill:#FF9000;" d="M48.551,61.275c3.24,9.322-3.603,16.822-13.151,13.736c-1.819,4.31-6.197,6.159-10.593,6.828
					c-11.779,2.164-24.51-2.896-32.219-11.926c-10.48-11.974,5.82-23.684,17.761-21.561c2.653-10.419,15.37-9.455,22.953-5.068
					C40.299,47.085,46.579,53.386,48.551,61.275z"/>
				<path style="fill:#6C1B00;" d="M35.388,74.93c0.484,0.208,0.193,0.998-0.333,0.786C23.955,71.358,9.241,61.988,9.959,48.263
					c0.047-0.353,0.554-0.562,0.781-0.161c0.101,0.619-0.097,1.275-0.012,1.913C11.969,63.002,24.617,70.5,35.388,74.93z"/>
				<g>
					<path style="fill:#6C1B00;" d="M44.644,65.525c-0.347-0.655,0.731-1.15,0.829-0.343C45.637,65.703,44.905,66.006,44.644,65.525
						z"/>
					<path style="fill:#6C1B00;" d="M29.638,60.588c0.092-0.315-0.041-0.679-0.509-0.762c-0.946-0.346-1.305,1.036-0.453,1.323
						C29.205,61.427,29.618,60.983,29.638,60.588z"/>
					<path style="fill:#6C1B00;" d="M38.696,51.602c-0.529-0.569,0.026-1.665,0.805-1.249C40.402,50.987,39.617,52.49,38.696,51.602
						z"/>
					<path style="fill:#6C1B00;" d="M24.637,46.493c-0.742-0.575,0.187-1.69,0.907-1.077C26.192,46.019,25.347,46.972,24.637,46.493
						z"/>
					<path style="fill:#6C1B00;" d="M-2.924,54.078c-0.288-0.293-0.075-0.864,0.347-0.856c0.429-0.441,0.993,0.217,0.759,0.682
						C-1.998,54.336-2.616,54.416-2.924,54.078z"/>
					<path style="fill:#6C1B00;" d="M20.37,51.288c3.187-0.665,4.497,6.806,0.439,4.58c-0.951-0.774-1.604-1.969-1.526-3.214
						C19.313,52.091,19.623,51.007,20.37,51.288z"/>
					<path style="fill:#6C1B00;" d="M31.516,45.99c2.163,0.399,2.779,4.943,0.06,4.732C29.797,50.341,29.483,45.947,31.516,45.99z"
						/>
					<path style="fill:#6C1B00;" d="M20.602,42.308c1.278,0.868,0.074,2.982-1.364,2.322c-1.314-0.382-0.607-2.94,0.645-2.477
						C20.129,42.082,20.388,42.178,20.602,42.308z"/>
					<path style="fill:#6C1B00;" d="M-1.554,63.229c-4.126-2.217,2.861-5.846,4.112-2.195C2.361,62.868,0.102,63.76-1.554,63.229z"
						/>
					<path style="fill:#6C1B00;" d="M8.171,53.215c0.971,0.908,0.213,3.015-1.222,2.636c-1.432-0.196-1.673-2.95-0.076-2.89
						C7.189,52.541,7.882,52.924,8.171,53.215z"/>
					<path style="fill:#6C1B00;" d="M16.347,66.819c0.899,1.408-0.533,2.825-1.972,2.115c-0.945-0.359-1.641-2.293-0.332-2.558
						C14.712,65.685,15.901,66.034,16.347,66.819z"/>
					<path style="fill:#6C1B00;" d="M26.055,73.564c-0.99,3.138-5.007-0.042-2.032-1.528C25.039,70.893,26.488,72.337,26.055,73.564
						z"/>
					<path style="fill:#6C1B00;" d="M37.421,57.693c1.328,2.531-2.876,3.236-3.011,0.677C34.331,56.874,36.728,56.5,37.421,57.693z"
						/>
					<path style="fill:#6C1B00;" d="M40.083,68.159c-0.068,1.122-1.307,1.472-2.174,0.938c-1.161-0.4-1.993-2.738-0.451-3.054
						C38.798,65.478,40.267,66.768,40.083,68.159z"/>
					<path style="fill:#6C1B00;" d="M46.454,58.299c1.002,1.314-0.448,2.533-1.759,1.74c-0.722-0.252-1.184-1.73-0.251-1.887
						c0.202-0.348,0.744-0.576,1.062-0.291C45.872,57.87,46.271,58.044,46.454,58.299z"/>
					<path style="fill:#6C1B00;" d="M9.154,61.011c0.525,0.654-0.119,1.915-0.992,1.623c-0.98-0.1-1.043-2.12,0.053-1.819
						C8.493,60.562,8.962,60.721,9.154,61.011z"/>
					<path style="fill:#6C1B00;" d="M5.186,70.332c-0.648-0.203-0.438-0.988-0.239-1.471c0.019-0.006,0.038-0.01,0.058-0.015
						c-0.006-0.13,0.061-0.229,0.128-0.33C6.946,67.248,7.064,71.092,5.186,70.332z"/>
					<path style="fill:#6C1B00;" d="M17.956,73.663c-0.193-0.286-0.626-0.574-0.942-0.305c-0.817,0.054-0.925,1.376-0.202,1.691
						C17.603,75.417,18.517,74.375,17.956,73.663z"/>
					<path style="fill:#6C1B00;" d="M9.46,74.194c-0.552-0.406,0.013-1.157,0.576-0.832C10.578,73.744,9.997,74.536,9.46,74.194z"/>
				</g>
			</g>
			<g>
				<path style="fill:#FF9000;" d="M770.6,238.426c5.262,6.037,3.616,14.976,0.521,21.674c-6.192,13.13-19.57,21.16-32.998,25.352
					c-14.777,4.082-36.431-0.954-35.524-19.575c0.003-0.102,0.01-0.203,0.015-0.306c-0.005-0.27-0.096-0.563-0.008-0.824
					c-5.409-25.636,23.868-49.687,48.129-41.018c4.56,1.559,9.288,3.636,13.171,6.644C766.693,232.525,769.05,235.159,770.6,238.426
					z"/>
				<path style="fill:#BF6110;" d="M770.6,238.426c5.262,6.037,3.616,14.976,0.521,21.674c-6.192,13.13-19.57,21.16-32.998,25.352
					c-14.777,4.082-36.431-0.954-35.524-19.575c3.377,3.401,11.059,10.061,19.362,10.042c11.143-0.026,22.966-3.732,32.264-11.51
					c9.298-7.782,12.567-15.717,13.148-21.03c0.544-4.948,0.751-6.674-3.466-13.007C766.693,232.525,769.05,235.159,770.6,238.426z"
					/>
				<path style="fill:#FFE4AA;" d="M741.934,238.05c-1.542,0.569-2.532-2.086-0.777-2.25
					C742.914,234.949,743.764,237.535,741.934,238.05z"/>
				<path style="fill:#FFE4AA;" d="M730.18,230.267c-1.721,0.808-3.043-2.404-1.036-2.553
					C730.94,226.493,732.084,229.568,730.18,230.267z"/>
				<path style="fill:#FFE4AA;" d="M756.115,234.971c-1.86,0.588-3.231-2.936-1.173-3.248
					C757.074,229.482,759.253,234.446,756.115,234.971z"/>
				<path style="fill:#FFE4AA;" d="M729.913,259.109c-1.378,0.82-3.383-1.539-1.699-2.314
					C729.637,254.624,732.191,258.01,729.913,259.109z"/>
				<path style="fill:#FFE4AA;" d="M747.257,226.781c-0.544-0.685,0.534-1.527,1.066-0.832
					C748.867,226.635,747.789,227.476,747.257,226.781z"/>
				<path style="fill:#FFE4AA;" d="M727.38,250.805c-0.544-0.685,0.534-1.526,1.066-0.832
					C728.99,250.659,727.912,251.5,727.38,250.805z"/>
				<path style="fill:#FFE4AA;" d="M713.781,242.074c1.281,1.192,1.01,3.055-0.549,3.844c-2.206,1.416-5.565-1.691-3.337-3.653
					C710.722,240.86,712.729,241.018,713.781,242.074z"/>
				<path style="fill:#FFE4AA;" d="M721.367,234.549c2.543-1.224,5.121,2.408,2.123,3.868c-2.666,1.624-5.293-2.501-2.397-3.871
					C721.179,234.528,721.277,234.529,721.367,234.549z"/>
				<path style="fill:#FFE4AA;" d="M733.637,233.544c3.011,2.269-2.581,8.605-3.932,4.16
					C729.493,235.673,731.294,232.467,733.637,233.544z"/>
				<path style="fill:#FFE4AA;" d="M740.001,225.339c2.339,1.972-1.19,3.916-3.105,3.01
					C733.285,226.469,737.603,223.378,740.001,225.339z"/>
				<path style="fill:#FFE4AA;" d="M719.837,254.494c1.507,1.765-1.196,4.153-2.835,2.609c-0.646-0.505-1.03-2.029,0.035-2.248
					C717.254,253.578,719.174,253.566,719.837,254.494z"/>
				<path style="fill:#FFE4AA;" d="M709.412,250.932c1.74,0.49,1.652,2.813,0.053,3.443c-1.789,1.06-3.681-2.086-1.763-2.888
					C708.026,250.899,708.807,250.779,709.412,250.932z"/>
				<path style="fill:#FFE4AA;" d="M734.19,243.069c2.588-0.327,3.154,4.046,0.458,4.238
					C731.979,247.606,731.292,243.165,734.19,243.069z"/>
				<path style="fill:#FFE4AA;" d="M721.738,244.24c3.009-1.261,3.454,2.721,0.442,2.888
					C720.301,247.392,719.992,244.473,721.738,244.24z"/>
				<path style="fill:#FFE4AA;" d="M746.337,231.911c2.74-1.497,4.918,2.823,1.843,3.967
					C745.206,236.788,744.24,232.028,746.337,231.911z"/>
				<path style="fill:#FFE4AA;" d="M745.937,243.201c1.552,0.906,1.006,3.095-0.702,3.393c-1.713,0.519-3.332-2.966-1.295-3.274
					C744.392,242.74,745.354,242.913,745.937,243.201z"/>
				<path style="fill:#6C1B00;" d="M752.349,266.299c-13.987,10.387-38.782,16.468-50.169-0.491
					c-0.669-0.954,0.73-1.581,1.352,0.122c16.515,20.769,53.789,3.998,61.599-17.512c2.136-5.201,2.643-11.617-1.158-16.177
					c-0.723-0.485-0.181-1.646,0.573-1.011C773.626,242.827,762.419,259.246,752.349,266.299z"/>
			</g>
			<g>
				<path style="fill:#FF9000;" d="M171.781,36.434c-3.827,7.034-12.78,8.603-20.137,8.034
					c-14.465-1.234-26.649-10.98-35.254-22.109c-8.971-12.432-11.787-34.485,5.985-40.117c0.096-0.033,0.194-0.062,0.292-0.093
					c0.252-0.099,0.494-0.286,0.769-0.294c22.149-13.995,54.888,5.078,55.207,30.84c0.126,4.818-0.176,9.973-1.643,14.66
					C175.952,30.717,174.303,33.843,171.781,36.434z"/>
				<path style="fill:#BF6110;" d="M171.781,36.434c-3.827,7.034-12.78,8.603-20.137,8.034
					c-14.465-1.234-26.649-10.98-35.254-22.109c-8.971-12.432-11.787-34.485,5.985-40.117c-2.013,4.35-5.582,13.87-2.674,21.646
					c3.904,10.437,11.493,20.231,22.021,26.239c10.532,6.007,19.108,6.309,24.292,5.005c4.828-1.213,6.518-1.619,10.987-7.778
					C175.952,30.717,174.303,33.843,171.781,36.434z"/>
				<path style="fill:#FFE4AA;" d="M162.154,9.429c-1.07-1.247,1.074-3.099,1.839-1.511C165.402,9.269,163.274,10.966,162.154,9.429
					z"/>
				<path style="fill:#FFE4AA;" d="M165.358-4.298c-1.357-1.332,1.194-3.69,2.032-1.86C169.161-4.9,166.676-2.757,165.358-4.298z"/>
				<path style="fill:#FFE4AA;" d="M169.977,21.652c-1.199-1.54,1.628-4.051,2.637-2.23
					C175.457,20.64,171.562,24.411,169.977,21.652z"/>
				<path style="fill:#FFE4AA;" d="M138.227,5.491c-1.248-1.006,0.265-3.707,1.577-2.398C142.336,3.671,140.051,7.244,138.227,5.491
					z"/>
				<path style="fill:#FFE4AA;" d="M174.571,10.497c0.453-0.749,1.617-0.031,1.151,0.71
					C175.269,11.956,174.105,11.238,174.571,10.497z"/>
				<path style="fill:#FFE4AA;" d="M145.13,0.226c0.453-0.749,1.617-0.031,1.151,0.71C145.828,1.685,144.664,0.967,145.13,0.226z"/>
				<path style="fill:#FFE4AA;" d="M148.582-15.561c-0.672,1.616-2.513,2.011-3.795,0.824c-2.096-1.575-0.352-5.805,2.263-4.4
					C148.654-18.852,149.205-16.916,148.582-15.561z"/>
				<path style="fill:#FFE4AA;" d="M158.276-11.07c2.033,1.958-0.475,5.639-2.887,3.336c-2.451-1.933,0.502-5.833,2.794-3.595
					C158.23-11.253,158.264-11.161,158.276-11.07z"/>
				<path style="fill:#FFE4AA;" d="M163.49,0.083c-1.079,3.613-8.966,0.576-5.268-2.238C160.052-3.06,163.684-2.488,163.49,0.083z"
					/>
				<path style="fill:#FFE4AA;" d="M173.397,3.193c-1.034,2.879-4.086,0.247-3.903-1.863C170-2.71,174.401,0.262,173.397,3.193z"/>
				<path style="fill:#FFE4AA;" d="M139.046-5.561c-1.13,2.027-4.31,0.324-3.433-1.749c0.249-0.781,1.544-1.671,2.12-0.75
					C139.006-8.301,139.686-6.505,139.046-5.561z"/>
				<path style="fill:#FFE4AA;" d="M138.756-16.574c0.147,1.802-2.062,2.528-3.209,1.249c-1.616-1.308,0.674-4.177,2.094-2.658
					C138.305-17.885,138.69-17.194,138.756-16.574z"/>
				<path style="fill:#FFE4AA;" d="M154.753,3.917c1.208,2.313-2.695,4.366-3.813,1.905C149.73,3.424,153.654,1.234,154.753,3.917z"
					/>
				<path style="fill:#FFE4AA;" d="M149.321-7.349c2.23,2.381-1.348,4.185-2.554,1.419C145.865-7.598,148.495-8.904,149.321-7.349z"
					/>
				<path style="fill:#FFE4AA;" d="M169.441,11.42c2.357,2.047-0.934,5.593-3.077,3.109C164.476,12.058,168.602,9.495,169.441,11.42
					z"/>
				<path style="fill:#FFE4AA;" d="M158.719,14.976c-0.309,1.77-2.551,2.021-3.426,0.523c-1.083-1.425,1.62-4.156,2.619-2.354
					C158.613,13.366,158.785,14.329,158.719,14.976z"/>
				<path style="fill:#6C1B00;" d="M139.297,29.027c-14.606-9.496-28.938-30.624-17.005-47.202c0.662-0.96,1.736,0.134,0.356,1.31
					c-13.721,22.712,14.976,51.817,37.86,51.651c5.619,0.192,11.81-1.566,14.762-6.717c0.203-0.847,1.48-0.742,1.147,0.185
					C168.708,40.803,149.415,36.012,139.297,29.027z"/>
			</g>
			<g>
				<path style="fill:#FF9000;" d="M645.719,505.517c-4.101,11.979-16.133,17.511-28.215,15.416
					c-0.572,1.125-5.008,6.557-6.192,5.322c-5.746-0.056-10.441-3.815-15.199-6.483c-8.711-5.212-15.832-13.23-20.462-22.23
					c-6.218-16.057,8.18-33.192,23.843-35.973c5.188-1.276,10.585-1.039,15.549,0.929c3.49,0.643,7.015,1.287,10.226,2.869
					c6.951,3.204,12.406,8.772,16.303,15.274C647.218,487.361,648.527,497.312,645.719,505.517z"/>
				<path style="fill:#6C1B00;" d="M641.473,485.577c-0.002-0.026-0.003-0.051-0.005-0.076c-0.04-0.562-0.13-1.12-0.273-1.665
					c-0.098-0.373-0.454-1.305-0.459-1.352c-1.079-2.679-2.745-5.095-4.686-7.221c-1.577-1.727-3.334-3.29-5.232-4.657
					c-1.731-1.247-3.871-2.837-5.972-3.357c-17.33-7.299-42.234-2.272-37.122,21.405c3.413,12.138,15.576,16.713,26.553,19.897
					c5.769,1.228,7.595,6.249,3.966,10.98c-0.211,0.458-1.141,1.054-0.525,1.527c0.639,0.253,0.936-0.721,1.292-1.109
					c4.063-5.534,1.673-10.938-4.876-12.364c-10.36-2.993-21.997-7.387-25.434-18.721c-5.214-23.388,18.316-27.504,35.581-20.952
					c6.352,2.41,12.403,7.867,15.271,14.017c3.35,7.184-2.347,14.917-8.737,17.977c-0.208,0.1-0.418,0.195-0.63,0.287
					c-4.518,1.958-9.715,2.133-14.472,0.862c-4.758-1.27-9.083-3.93-12.657-7.318c-2.72-2.578-5.14-5.87-5.236-9.617
					c-0.102-3.945,2.518-7.624,5.95-9.571c3.433-1.947,7.543-2.379,11.478-2.088c4.206,0.311,8.455,1.453,11.828,3.984
					c1.35,1.014,2.558,2.259,3.323,3.764c0.765,1.505,1.057,3.29,0.587,4.912c-0.703,2.425-3.018,4.137-5.478,4.708
					c-2.46,0.571-5.043,0.168-7.481-0.488c-2.311-0.622-4.626-1.51-6.375-3.145c-1.133-1.059-2.026-2.593-1.695-4.108
					c0.358-1.639,2.002-2.668,3.604-3.169c2.73-0.854,5.763-0.699,8.391,0.428c0.898,0.385,1.786,0.916,2.283,1.757
					s0.467,2.055-0.287,2.676c-0.503,0.414-1.196,0.488-1.846,0.528c-0.915,0.055-1.852,0.073-2.728-0.197
					c-0.876-0.27-1.694-0.875-2.005-1.737c0.413,0.005,0.514-0.695,0.152-0.892c-0.362-0.197-0.845,0.085-0.976,0.477
					c-0.131,0.392,0.004,0.825,0.209,1.183c0.894,1.567,2.913,2.093,4.717,2.092c1.388,0,2.959-0.34,3.666-1.534
					c0.579-0.977,0.37-2.28-0.279-3.212c-0.649-0.932-1.664-1.546-2.709-1.992c-2.698-1.152-5.798-1.335-8.612-0.508
					c-1.169,0.343-2.31,0.869-3.193,1.709c-0.883,0.84-1.485,2.026-1.435,3.243c0.062,1.514,1.083,2.82,2.222,3.819
					c2.704,2.373,6.264,3.614,9.84,4.007c1.901,0.209,3.857,0.19,5.686-0.369c1.829-0.558,3.529-1.7,4.491-3.353
					c1.035-1.778,1.124-4.016,0.485-5.971c-0.639-1.956-1.952-3.643-3.521-4.974c-3.72-3.153-8.756-4.336-13.629-4.509
					c-3.417-0.122-6.917,0.221-10.042,1.609c-3.125,1.389-5.846,3.93-6.895,7.185c-0.995,3.091-0.395,6.552,1.143,9.412
					c1.538,2.861,3.941,5.175,6.568,7.084c3.921,2.848,8.47,4.903,13.269,5.575c4.799,0.671,9.848-0.094,14.056-2.497
					C637.468,497.167,641.849,491.46,641.473,485.577z"/>
			</g>
		</g>
	</g>
	<g>
		<defs>
			<rect id="SVGID_00000139978154268416648420000005956510577588941457_" width="750" height="500"/>
		</defs>
		<clipPath id="SVGID_00000048489660530372153840000002679487918770137474_">
			<use xlink:href="#SVGID_00000139978154268416648420000005956510577588941457_"  style="overflow:visible;"/>
		</clipPath>
		<g style="clip-path:url(#SVGID_00000048489660530372153840000002679487918770137474_);">
			<path style="fill:#FCC37E;" d="M218.107,470.246c0.107,0.711,0.286,1.431,0.533,2.133c-2.792,0.621-5.591,1.658-7.814,3.472
				c-2.315,1.891-3.789,4.648-3.649,7.681c0.137,2.952,1.665,5.703,3.729,7.756c2.34,2.327,5.473,3.638,8.638,4.401
				c0.692,0.167,1.392,0.294,2.092,0.418c-0.844,2.068-1.238,4.328-1.148,6.552c0.253,6.226,4.532,11.315,10.41,13.148
				c3.422,1.068,6.678-0.384,9.683-2.008c2.141-1.157,9.156-7.754,8.288-8.385c4.096,2.979,10.017,3.205,14.176,0.157
				c4.947-3.626,6.928-10.489,4.75-16.203c-1.141-2.993-3.221-5.591-5.824-7.446c-0.424-0.302-0.895-0.605-1.383-0.901
				c0.021-0.031,0.047-0.063,0.067-0.094c3.055-4.642,2.911-11.345-0.432-15.806c-3.371-4.498-9.472-5.835-14.69-4.157
				c-1.289,0.414-2.531,1.015-3.651,1.786c-3.364-4.049-8.54-6.463-13.897-5.486C221.814,458.39,217.143,463.845,218.107,470.246z
				 M226.794,491.529c1.909-1.513,5.243-2.748,6.934-0.219c0.681,1.018,0.501,2.299-0.456,3.067
				c-0.929,0.744-2.243,0.957-3.396,1.034c-1.956,0.13-4.006-0.105-5.992-0.424C224.647,493.67,225.61,492.467,226.794,491.529z
				 M257.188,482.552c-1.022,0.782-2.519,1.543-3.741,0.734c-1.187-0.785-0.932-2.17,0.429-2.533
				c1.406-0.375,3.001,0.05,4.465,0.736C257.986,481.87,257.608,482.231,257.188,482.552z M234.448,459.203
				c2.448,0.858,4.615,2.479,6.259,4.476c-0.635,0.558-1.218,1.173-1.719,1.857c-1.634,2.233-2.836,5.575-1.055,8.08
				c1.536,2.16,4.775,2.749,6.411,0.356c1.725-2.524,0.76-5.957-0.56-8.413c-0.297-0.552-0.632-1.081-0.987-1.595
				c2.576-1.762,5.865-2.521,8.938-2.1c4.581,0.627,8.084,3.818,9.214,8.293c0.845,3.347,0.306,7.247-1.671,10.143
				c-1.901-0.941-4.04-1.532-5.969-0.942c-1.257,0.385-2.255,1.455-2.161,2.831c0.088,1.299,1.141,2.375,2.338,2.768
				c2.352,0.772,4.645-0.919,6.203-2.757c0.551,0.33,1.065,0.675,1.513,1.003c4.152,3.043,6.763,8.118,5.789,13.304
				c-0.892,4.745-4.56,9.186-9.566,9.718c-2.669,0.283-5.555-0.486-7.762-2.091c0.034-0.06,0.075-0.115,0.109-0.175
				c1.399-2.523,3.365-6.412,1.624-9.235c-1.598-2.589-5.283-1.587-6.392,0.895c-1.241,2.779,0.193,6.083,2.083,8.193
				c0.202,0.226,0.418,0.436,0.636,0.643c0.528,0.501-4.832,5.951-5.57,6.443c-6.835,4.552-10.679,3.572-12.06,3.011
				c-1.685-0.685-3.238-1.696-4.527-2.981c-3.513-3.504-4.39-8.82-2.842-13.447c0.128-0.385,0.3-0.756,0.464-1.131
				c0.511,0.073,1.021,0.152,1.533,0.213c1.633,0.194,3.294,0.435,4.941,0.361c2.551-0.113,5.912-1.131,5.993-4.216
				c0.083-3.171-3.422-4.81-6.146-4.209c-2.949,0.649-5.385,3.105-6.882,5.619c-0.114,0.192-0.193,0.404-0.298,0.601
				c-0.166-0.03-0.338-0.058-0.502-0.087c-5.041-0.904-10.321-3.087-12.435-8.133c-0.947-2.26-0.993-4.764,0.201-6.943
				c1.23-2.245,3.52-3.707,5.84-4.635c1.193-0.477,2.481-0.895,3.794-1.195c0.753,1.484,1.84,2.79,3.286,3.595
				c1.165,0.649,2.752,0.962,3.928,0.17c1.057-0.712,1.326-2.076,0.899-3.225c-1.108-2.981-4.614-2.652-7.22-2.185
				c-0.198-0.528-0.353-1.063-0.455-1.582c-0.462-2.339-0.065-4.857,1.165-6.905C223.534,459.085,229.655,457.522,234.448,459.203z
				 M241.628,464.887c1.208,1.739,2.145,3.756,2.115,5.878c-0.015,1.072-0.294,2.395-1.282,2.995
				c-1.029,0.626-2.249,0.183-3.013-0.645c-1.769-1.915-0.612-4.866,0.725-6.673C240.6,465.867,241.1,465.36,241.628,464.887z
				 M248.501,503.143c-1.096-1.092-1.92-2.442-2.292-4.017c-0.281-1.189-0.255-2.616,0.605-3.572
				c0.775-0.862,2.188-1.274,3.075-0.336c0.914,0.967,0.696,2.638,0.399,3.813c-0.348,1.383-1.023,2.715-1.698,3.965
				C248.562,503.046,248.529,503.094,248.501,503.143z M220.764,473.448c0.769-0.115,1.535-0.195,2.287-0.198
				c1.195-0.005,2.564,0.378,2.925,1.67c0.45,1.608-1.357,1.715-2.414,1.25C222.361,475.641,221.434,474.622,220.764,473.448z"/>
			<path style="fill:#FCC37E;" d="M396.369-16.24c0.099,0.658,0.265,1.324,0.493,1.973c-2.583,0.574-5.172,1.533-7.228,3.212
				c-2.142,1.749-3.505,4.299-3.375,7.105c0.127,2.731,1.54,5.276,3.45,7.175c2.165,2.153,5.063,3.365,7.991,4.071
				c0.64,0.154,1.287,0.272,1.936,0.386c-0.781,1.913-1.145,4.004-1.062,6.061c0.234,5.76,4.192,10.467,9.63,12.163
				c3.166,0.988,6.178-0.356,8.957-1.857c1.981-1.07,8.47-7.173,7.667-7.757c3.789,2.756,9.267,2.965,13.114,0.145
				c4.576-3.354,6.409-9.703,4.394-14.989c-1.055-2.769-2.98-5.172-5.388-6.888c-0.392-0.28-0.828-0.56-1.28-0.833
				c0.019-0.028,0.044-0.058,0.062-0.087c2.827-4.294,2.692-10.495-0.4-14.622c-3.118-4.161-8.762-5.398-13.589-3.845
				c-1.192,0.383-2.341,0.939-3.378,1.653c-3.111-3.746-7.9-5.978-12.856-5.075C399.798-27.208,395.477-22.161,396.369-16.24z
				 M404.404,3.448c1.766-1.4,4.85-2.542,6.414-0.203c0.63,0.942,0.464,2.127-0.422,2.837c-0.86,0.688-2.075,0.885-3.141,0.957
				c-1.81,0.121-3.706-0.097-5.543-0.393C402.418,5.429,403.309,4.316,404.404,3.448z M432.521-4.856
				c-0.946,0.723-2.33,1.428-3.46,0.679c-1.098-0.726-0.862-2.007,0.397-2.343c1.301-0.346,2.776,0.047,4.13,0.681
				C433.259-5.487,432.909-5.153,432.521-4.856z M411.485-26.455c2.264,0.794,4.269,2.293,5.79,4.141
				c-0.587,0.516-1.127,1.085-1.59,1.717c-1.511,2.066-2.623,5.157-0.976,7.474c1.421,1.999,4.417,2.543,5.931,0.329
				c1.596-2.335,0.703-5.51-0.518-7.783c-0.275-0.511-0.585-1-0.913-1.475c2.383-1.63,5.425-2.332,8.268-1.943
				c4.238,0.58,7.478,3.532,8.524,7.672c0.782,3.096,0.283,6.704-1.545,9.383c-1.759-0.87-3.737-1.418-5.522-0.871
				c-1.163,0.357-2.086,1.346-1.999,2.619c0.082,1.201,1.056,2.197,2.163,2.56c2.176,0.714,4.297-0.85,5.738-2.55
				c0.51,0.305,0.985,0.625,1.399,0.928c3.841,2.815,6.257,7.51,5.355,12.307c-0.825,4.389-4.218,8.498-8.849,8.99
				c-2.469,0.262-5.139-0.449-7.18-1.934c0.031-0.056,0.07-0.107,0.101-0.162c1.294-2.334,3.113-5.932,1.502-8.543
				c-1.478-2.395-4.888-1.468-5.913,0.828c-1.148,2.57,0.179,5.627,1.926,7.579c0.187,0.209,0.387,0.403,0.589,0.595
				c0.488,0.464-4.47,5.505-5.153,5.96c-6.323,4.211-9.879,3.305-11.156,2.785c-1.559-0.634-2.996-1.569-4.188-2.758
				c-3.25-3.242-4.061-8.159-2.629-12.44c0.119-0.356,0.278-0.7,0.429-1.046c0.473,0.067,0.944,0.14,1.418,0.197
				c1.51,0.179,3.047,0.402,4.571,0.334c2.36-0.105,5.469-1.047,5.544-3.9c0.077-2.933-3.165-4.449-5.685-3.893
				c-2.728,0.6-4.981,2.872-6.366,5.198c-0.106,0.178-0.179,0.373-0.276,0.556c-0.154-0.028-0.313-0.053-0.465-0.081
				c-4.663-0.836-9.548-2.855-11.503-7.523c-0.876-2.091-0.919-4.407,0.186-6.423c1.138-2.077,3.256-3.43,5.403-4.287
				c1.103-0.442,2.295-0.828,3.509-1.106c0.697,1.372,1.702,2.581,3.039,3.325c1.078,0.6,2.546,0.89,3.634,0.157
				c0.978-0.659,1.226-1.92,0.832-2.983c-1.025-2.758-4.269-2.453-6.679-2.021c-0.184-0.489-0.326-0.984-0.421-1.463
				c-0.427-2.164-0.06-4.493,1.077-6.387C401.389-26.565,407.051-28.01,411.485-26.455z M418.127-21.198
				c1.117,1.608,1.984,3.475,1.957,5.437c-0.014,0.991-0.272,2.215-1.186,2.771c-0.952,0.579-2.08,0.169-2.788-0.596
				c-1.637-1.771-0.566-4.502,0.671-6.173C417.176-20.291,417.638-20.76,418.127-21.198z M424.485,14.193
				c-1.014-1.011-1.776-2.259-2.121-3.716c-0.26-1.1-0.235-2.42,0.56-3.304c0.717-0.798,2.024-1.179,2.844-0.311
				c0.846,0.895,0.643,2.441,0.369,3.527c-0.322,1.28-0.947,2.512-1.571,3.668C424.542,14.103,424.511,14.146,424.485,14.193z
				 M398.826-13.278c0.711-0.106,1.42-0.18,2.116-0.183c1.105-0.005,2.372,0.35,2.706,1.545c0.416,1.488-1.256,1.586-2.233,1.156
				C400.304-11.249,399.446-12.192,398.826-13.278z"/>
			<g>
				<path style="fill:#FCC37E;" d="M342.798,460.847c12.333-22.244-7.276-32.844-23.842-15.949
					c-5.792-5.241-14.246-1.537-21.008-3.587c-2.145,3.41,9.799,15.459,14.392,15.948c-1.515,3.607-4.205,11.935-2.25,14.865
					c4.813-2.489,19.301-6.014,14.329-10.258C330.227,466.825,338.749,466.505,342.798,460.847z M318.43,445.86
					c-0.499,1.046-0.702,2.237-0.793,3.344c-0.69-0.199-1.383-0.399-2.072-0.607c0.299-1.703-0.964-3.609-1.75-5.123
					C315.516,443.895,317.115,444.625,318.43,445.86z M308.434,442.957c1.297-0.014,2.637,0.038,3.947,0.235
					c1.055,1.561,1.906,3.273,2.269,5.14c-1.505-0.459-3.001-0.944-4.482-1.474c0.081-1.417-1.336-2.807-2.19-3.892
					C308.13,442.964,308.282,442.958,308.434,442.957z M306.441,442.999c1.115,0.958,2.007,2.142,2.621,3.477
					c-2.829-1.053-5.607-2.244-8.322-3.569C302.625,443.1,304.533,443.049,306.441,442.999z M299.073,443.273
					c3.341,1.691,6.787,3.153,10.302,4.43c-1.74,1.199-3.778,1.882-5.902,1.97C301.763,447.724,300.284,445.572,299.073,443.273z
					 M308.959,454.423c-0.051,0.021-0.085,0.052-0.123,0.081c-1.622-1.104-3.079-2.413-4.433-3.823
					c2.253-0.252,4.419-1.139,6.199-2.55c1.399,0.486,2.81,0.938,4.228,1.366C313.455,451.712,311.373,453.448,308.959,454.423z
					 M312.771,456.279c-1.011-0.21-1.96-0.608-2.857-1.109c2.49-1.145,4.566-3.008,5.984-5.363c0.57,0.137,1.131,0.4,1.713,0.454
					c0.035,1.545,0.373,3.062,0.972,4.499C317.104,456.308,314.806,456.704,312.771,456.279z M313.447,457.438
					c2.009,0.29,4.108-0.318,5.611-1.665c0.153,0.299,0.335,0.587,0.509,0.877c-0.837,1.201-1.138,2.883-1.922,4.177
					c-2.066,1.051-4.044,2.615-6.381,3.26C311.689,461.784,312.346,459.539,313.447,457.438z M311.06,465.308
					c0.254-0.041,0.571-0.04,0.714-0.262c1.734-0.609,3.387-1.425,4.921-2.436c-1.651,2.969-3.816,5.61-6.184,8.051
					C310.637,468.877,310.793,467.081,311.06,465.308z M312.576,470.019c2.655-2.847,4.834-6.111,6.465-9.642
					c0.701,1.994,0.913,4.105,0.803,6.204C317.443,467.898,315.094,469,312.576,470.019z M320.906,465.934
					c0.058-2.351-0.227-4.807-1.257-6.939c0.188-0.457,0.374-0.914,0.544-1.378c0.827,1.178,1.805,2.272,2.916,3.228
					C323.86,463.023,322.976,464.689,320.906,465.934z M335.186,463.848c-9.326,1.503-21.668-11.738-13.676-19.419
					c4.98-4.786,12.362-8.353,19.338-5.382C347.986,445.276,345.198,462.376,335.186,463.848z"/>
				<path style="fill:#FCC37E;" d="M326.406,446.304c-0.708-1.348-4.779,2.018-2.269,1.79
					C324.682,447.296,326.492,447.365,326.406,446.304z"/>
				<path style="fill:#FCC37E;" d="M328.814,456.306c0.322-0.788,1.786-1.691,1.173-2.543
					C329.037,453.015,326.682,457.41,328.814,456.306z"/>
				<path style="fill:#FCC37E;" d="M337.484,458.268c0.066-0.495,1.357-2.225,0.5-2.552
					C336.817,455.313,335.736,459.743,337.484,458.268z"/>
				<path style="fill:#FCC37E;" d="M336.331,449.071c0.165-0.679,1.254-2.391-0.13-2.258
					C335.426,447.233,334.816,450.364,336.331,449.071z"/>
				<path style="fill:#FCC37E;" d="M335.009,441.451c-0.034,0.008-0.069,0.016-0.103,0.024c1.726-1.463-1.49-1.131-1.954,0.065
					C332.556,443.435,334.305,441.587,335.009,441.451z"/>
				<path style="fill:#FCC37E;" d="M342.722,448.434c0.078-0.754-0.199-2.683-1.287-2.231c-0.544,0.429,0.102,0.946,0.179,1.437
					C341.461,448.417,342.209,449.539,342.722,448.434z"/>
			</g>
			<g>
				<path style="fill:#FCC37E;" d="M558.863,472.066c2.375-6.374-9.867-10.946-12.246-4.562
					C544.243,473.879,556.485,478.451,558.863,472.066z"/>
				<path style="fill:#FCC37E;" d="M539.157,478.715c1.357-3.642-5.638-6.255-6.998-2.607
					C530.802,479.75,537.797,482.363,539.157,478.715z"/>
				<path style="fill:#FCC37E;" d="M538.523,465.312c1.866-5.008-7.753-8.601-9.622-3.584
					C527.035,466.736,536.654,470.329,538.523,465.312z"/>
			</g>
			<g>
				<path style="fill:#FCC37E;" d="M132.62,82.477c3.683-5.775-7.405-12.859-11.094-7.075
					C117.843,81.177,128.931,88.262,132.62,82.477z"/>
				<path style="fill:#FCC37E;" d="M111.815,84.865c2.104-3.3-4.232-7.348-6.34-4.043C103.371,84.122,109.707,88.171,111.815,84.865
					z"/>
				<path style="fill:#FCC37E;" d="M114.019,71.536c2.894-4.537-5.819-10.104-8.717-5.559
					C102.408,70.514,111.12,76.081,114.019,71.536z"/>
			</g>
			<path style="fill:#FCC37E;" d="M212.434,5.087c-2.99,1.579-4.742,6.339-1.684,8.686c-3.667,1.689-8.903,3.114-10.075,7.471
				c-0.417,2.794,2.777,4.102,5.046,3.094c-3.368,2.717-7.507,12.699,0.653,9.847c3.443-1.8,6.517-4.297,9.262-7.035
				c-0.505,2.232,0.781,5.161,3.32,5.261c4.871-0.724,6.583-7.325,8.287-11.257c4.802,4.304,9.527-3.716,10.469-7.889
				c6.632,1.981,10.845-14.64,10.755-19.406c3.784-2.277,7.699-4.333,11.693-6.216c2.775-4.241-11.272,4.565-12.216,4.964
				c-3.28-1.556-23.582-4.245-17.848,3.628c-4.229-0.648-11.886,1.741-8.807,7.192C218.282,3.544,215.112,3.528,212.434,5.087z
				 M223.063,4.628c1.64,0.854,4.526-1.469,2.089-1.711c-2.168,1.026-4.079-0.691-2.859-2.894
				c2.416-4.733,11.009-0.404,13.199-4.183c-0.53-1.359-3.445,0.912-4.76-0.866c-2.367-4.594,13.574-2.334,15.674-1.436
				c-11.579,7.052-22.083,15.852-31.097,25.976c-0.576,0.647,0.495,1.465,1.07,0.819c8.93-10.032,19.362-18.716,30.822-25.717
				c-0.461,3.87-3.841,18.945-9.21,17.299c1.514-5.963-3.577-2.856-1.456,0.503c-0.91,3.367-3.1,9.023-7.329,8.525
				c-0.823-0.314-1.635-1.229-1.266-2.13c0.36-1.276-1.486-1.131-1.407,0.077c-1.398,4.212-2.918,9.279-6.626,11.983
				c-1.245,0.554-2.361-0.234-2.808-1.415c-0.608-1.605,0.18-3.362,0.801-4.837c0.303-0.721-0.671-1.242-1.158-0.668
				c-2.763,2.951-9.182,9.885-13.364,9.272c-0.672-0.098-0.386-2.074-0.296-2.429c0.281-1.112,0.917-2.143,1.573-3.069
				c0.662-0.935,1.416-1.812,2.233-2.615c0.922-0.906,1.886-1.305,1.04-2.746c-0.371-0.631-2.83,0.822-3.642,0.892
				c-0.991,0.086-2.868-0.517-2.251-1.962c1.701-3.985,6.829-5.151,10.496-6.729c4.291,0.565,5.594-3.907-0.053-1.394
				c-1.751-0.498-2.383-2.481-1.758-4.081C212.66,4.204,218.813,5.103,223.063,4.628z"/>
			<g>
				<path style="fill:#FCC37E;" d="M693.257,205.232c5.343,0.023,5.379-6.323,0.028-6.346
					C687.942,198.863,687.905,205.209,693.257,205.232z"/>
				<path style="fill:#FCC37E;" d="M702.911,200.81c3.053,0.013,3.074-3.613,0.016-3.626
					C699.874,197.171,699.853,200.797,702.911,200.81z"/>
				<path style="fill:#FCC37E;" d="M692.696,194.828c4.198,0.018,4.227-4.968,0.022-4.986
					C688.52,189.823,688.491,194.81,692.696,194.828z"/>
			</g>
			<g>
				<path style="fill:#FCC37E;" d="M27.315,383.437c6.275-3.995,1.301-11.832-4.985-7.831
					C16.055,379.6,21.029,387.438,27.315,383.437z"/>
				<path style="fill:#FCC37E;" d="M35.125,370.725c3.586-2.283,0.743-6.761-2.849-4.475
					C28.691,368.533,31.534,373.011,35.125,370.725z"/>
				<path style="fill:#FCC37E;" d="M18.433,371.054c4.931-3.139,1.022-9.297-3.917-6.153
					C9.586,368.04,13.495,374.198,18.433,371.054z"/>
			</g>
			<path style="fill:#FCC37E;" d="M694.122,463.369c-0.018-2.971-2.258-6.031-5.45-5.816c2.64-3.145,0.699-9.814-3.957-10.739
				c-5.082-1.01-9.74,1.982-11.368,6.586c-7.515-4.447-14.233,7.797-6.441,11.714c-10.042,4.282,0.012,14.998,6.589,7.596
				c0.319,9.331,15.172,7.832,13.578-1.492C690.679,470.292,694.252,467.379,694.122,463.369z M687.545,469.729
				c-0.256,0.092-0.528,0.156-0.794,0.233c-3.366-7.921-9.802,3.116-0.928,1.565c0.03,2.771-1.172,5.615-4.145,6.169
				c-2.264,0.422-4.846-0.596-6.145-2.514c-0.652-0.963-0.923-2.114-0.778-3.268c0.087-0.689,0.323-1.341,0.625-1.963
				c0.137-0.283,0.496-0.644,0.357-0.934c-0.605-1.259-1.89,0.895-2.171,1.279c-0.612,0.834-1.265,1.659-2.055,2.333
				c-1.683,1.437-3.696,1.727-5.717,0.796c-4.94-3.36,1.069-8.57,5.38-7.443c1.641-0.998-0.859-1.588-1.783-1.322
				c-8.572-1.288-3.812-14.532,3.541-9.999c-2.659,11.197,8.899,6.688,1.483-0.524c1.555-4.824,7.024-7.606,11.349-5.592
				c3.321,1.546,3.724,6.557,1.122,9.287c-7.445,2.494-4.589,5.966,0.695,1.135C695.141,457.883,693.631,468.659,687.545,469.729z
				 M685.505,470.248c-1.063,0.45-3.992-0.014-2.689-1.581C683.97,467.863,685.145,469.236,685.505,470.248z M674.029,455.526
				c1.052,1.076,2.378,3.371,1.053,4.629C673.262,460.178,673.917,456.782,674.029,455.526z"/>
			<path style="fill:#FCC37E;" d="M516.527,48.201c-0.701-3.044-3.701-5.669-6.926-4.716c1.987-3.833-1.535-10.229-6.525-10.109
				c-5.445,0.131-9.538,4.269-10.151,9.366c-8.73-2.837-12.812,11.266-3.919,13.497c-9.319,6.698,3.455,15.384,8.503,6.28
				c2.47,9.5,17.363,4.553,13.588-4.648C514.584,56.094,517.581,52.284,516.527,48.201z M511.24,56.236
				c-0.241,0.153-0.506,0.281-0.761,0.422c-5.272-7.354-9.341,5.447-0.592,1.819c0.667,2.836,0.086,6.03-2.837,7.28
				c-2.226,0.952-5.109,0.501-6.881-1.169c-0.89-0.839-1.433-1.957-1.548-3.174c-0.069-0.727,0.024-1.449,0.191-2.157
				c0.076-0.322,0.361-0.775,0.152-1.04c-0.909-1.153-1.733,1.352-1.934,1.81c-0.436,0.996-0.917,1.992-1.572,2.865
				c-1.396,1.861-3.396,2.62-5.683,2.129c-5.839-2.313-0.871-9.037,3.811-8.871c1.455-1.401-1.245-1.432-2.132-0.947
				c-9.09,0.646-7.247-14.034,1.338-11.071c-0.158,12.097,10.665,4.819,1.401-0.878c0.488-5.306,5.46-9.416,10.36-8.342
				c3.762,0.824,5.326,5.873,3.283,9.27c-7.066,4.268-3.338,7.174,0.973,1.005C516.314,42.338,517.238,53.74,511.24,56.236z
				 M509.267,57.236c-0.988,0.705-4.099,0.902-3.121-1.005C507.144,55.142,508.665,56.28,509.267,57.236z M494.114,44.767
				c1.326,0.863,3.213,2.912,2.143,4.508C494.394,49.715,494.287,46.081,494.114,44.767z"/>
			<g>
				<path style="fill:#FCC37E;" d="M565.167,68.684c5.661,4.516,10.711-1.797,5.042-6.32
					C564.548,57.849,559.497,64.161,565.167,68.684z"/>
				<path style="fill:#FCC37E;" d="M560.487,52.173c3.235,2.58,6.121-1.027,2.881-3.611
					C560.133,45.981,557.247,49.588,560.487,52.173z"/>
				<path style="fill:#FCC37E;" d="M578.921,72.383c3.235,2.58,6.121-1.026,2.881-3.611
					C578.568,66.191,575.681,69.798,578.921,72.383z"/>
				<path style="fill:#FCC37E;" d="M572.789,57.814c4.448,3.548,8.416-1.411,3.961-4.965C572.302,49.3,568.334,54.26,572.789,57.814
					z"/>
			</g>
			<g>
				<path style="fill:#FCC37E;" d="M292.022,48.099c9.496-3.18,5.608-14.842-3.904-11.656
					C278.622,39.623,282.51,51.285,292.022,48.099z"/>
				<path style="fill:#FCC37E;" d="M308.664,39.279c4.989-1.671,3.132-7.243-1.865-5.57C301.81,35.38,303.667,40.953,308.664,39.279
					z"/>
			</g>
			<path style="fill:#FCC37E;" d="M770.682-39.341c-15.115-1.509-30.28,6.796-38.161,19.601
				c-12.802,21.823,4.011,53.288-26.94,64.972c0.651-7.475-6.836-14.335-13.982-10.334c-10.543,7.343,3.408,16.457,11.728,13.115
				c-13.43,39.453-83.34,29.857-108.126,6.056c-15.711-13.417-28.107-38.075-52.089-35.327c-0.375,0.043-2.301-1.793-2.76-2.068
				c-1.085-0.651-2.243-1.171-3.437-1.587c-2.44-0.849-5.032-1.216-7.608-1.293c-8.68-0.257-16.969,2.884-25.32,4.803
				c-8.877,2.039-17.814,3.858-26.564,6.405c-13.677,3.981-27.328,8.423-41.265,11.415c-12.042,2.586-24.43,3.732-36.654,1.759
				c-13.023-2.102-25.35-6.985-37.856-10.99c-11.65-3.73-23.515-6.441-35.822-6.06c-2.125,0.066-4.246,0.212-6.367,0.358
				c-27.591,1.9-55.222,8.757-80.158,20.866c-26.067,12.537-53.164,30.165-83.4,25.464c-24.912-4.016-41.261-28.48-67.259-28.715
				C77.695,10.723,36.588,26.109,21.965,2.086c-5.95-10.7-4.048-24.073,0.918-34.78c0.543-1.159-1.181-2.175-1.727-1.009
				c-5.861,12.506-7.684,29.104,1.626,40.485c16.202,19.665,52.453,6.804,63.732,32.441c-7.366-0.063-18.937,8.169-11.582,15.515
				c8.593,6.428,16.847-5.611,14.252-13.653c16.218,0.329,28.963,10.859,42.066,18.926c42.629,28.731,87.46-8.547,127.533-23.738
				c22.764-8.275,45.523-12.894,69.71-13.281c23.448-0.375,44.504,12.007,67.046,16.493c11.994,2.386,24.097,2.016,36.095-0.14
				c12.988-2.335,25.504-6.806,38.271-10.1c9.71-2.505,19.44-4.933,29.177-7.329c10.593-2.606,22.398-6.972,33.384-5.911
				c1.938,0.187,3.521,0.677,5.207,1.666c0.851,0.499,1.971,1.698,3.054,1.562c-9.185,1.149-17.066,16.595-5.085,19.754
				c10.418,1.902,16.332-11.221,9.196-18.432c27.665-0.533,37.88,31.904,60.182,42.963c27.341,17.675,89.417,22.505,100.418-16.112
				c23.475-7.982,23.497-30.792,23.747-51.536c2.283-19.734,21.725-35.31,41.495-33.213
				C771.962-37.213,771.953-39.214,770.682-39.341z M84.598,52.539c-12.812,7.524-14.35-10.615,2.532-11.369
				C88.163,45.218,87.743,49.484,84.598,52.539z M545.109,24.78c3.397,6.338-2.686,13.814-9.541,12.152
				c-9.562-3.937-0.371-15.775,6.947-16.062C543.536,21.965,544.425,23.244,545.109,24.78z M703.573,45.885
				c-5.234,2.401-17.644-1.157-12.309-8.318C697.198,32.382,704.688,38.967,703.573,45.885z"/>
			<path style="fill:#FCC37E;" d="M46.714,216.957c-4.276-7.544-12.647-12.265-20.396-15.659c2.63-23.748,9.625-47.063,9.324-70.957
				c-3.381-27.455-39.404-31.261-57.07-14.576c-1.249,0.849-8.299,6.645-3.442,5.761c13.946-15.626,42.818-20.843,55.28-0.84
				c5.205,8.748,3.477,19.365,1.972,28.912c-2.504,16.563-5.651,34.493-7.901,51.011c-14.909-5.407-32.238-4.462-45.988,3.687
				c-1.108,0.654-0.103,2.383,1.009,1.727c13.421-7.909,30.297-8.812,44.788-3.37C20.516,225.776,47.777,233.232,46.714,216.957z
				 M44.855,220.115c-9.346,11.446-21.413-6.64-18.727-16.754C32.307,206.481,45.035,212.306,44.855,220.115z"/>
			<path style="fill:#FCC37E;" d="M786.102,377.763c-11.522-53.969-71.744-47.126-107.37-74.156
				c-27.936-21.909-22.565-69.239,9.992-83.819c16.278-7.445,50.654-6.55,46.223-32.525c2.27-8.592-1.428-16.755-1.511-25.283
				c-0.045-19.262,19.428-31.899,37.257-31.869c1.283-0.045,1.289-2.045,0-2c-16.66,0.169-34.36,9.958-38.443,27.008
				c-2.684,9.675,2.318,19.254,1.347,28.954c-4.718-10.114-20.805-8.085-20.904,3.763c0.009,11.901,16.998,13.7,20.939,3.136
				c-1.86,22.511-30.901,19.258-46.111,27.184c-30.315,13.9-38.765,56.626-16.145,81.089c20.329,22.44,52.854,23.75,78.603,36.83
				c31.246,13.784,45.321,54.697,29.525,84.883c-0.587,1.142,1.137,2.155,1.728,1.009
				C788.215,408.414,789.621,392.521,786.102,377.763z M720.01,195.582c-15.529-9.746,6.487-25.829,12.844-8.356
				C730.997,192.891,726.362,198.282,720.01,195.582z"/>
			<path style="fill:#FCC37E;" d="M550.254,496.355c-13.555-6.707-28.966-3.469-38.06-18.314
				c-65.392-73.969-181.898,60.71-234.871-21.765c-10.22-20.634-18.104-55.074-47.237-52.934
				c-43.276-34.974-106.97-12.319-139.706,26.647c-28.857,31.109-45.178,84.14-93.791,88.213
				c-7.063,0.416-14.058-0.777-20.498-3.733c-1.162-0.533-2.179,1.19-1.009,1.727c23.599,10.832,50.369-1.576,67.265-18.82
				c19.79-20.198,31.587-46.646,50.76-67.413c31.959-37.016,92.321-58.457,134.547-26.099c-9.614,1.836-14.983,14.159-7.115,21.163
				c12.418,8.974,20.874-11.985,11.213-19.937c11.172-1.04,21.4,8.062,27.313,16.911c7.361,11.016,10.581,24.079,16.76,35.708
				c44.986,68.227,127.102-7.805,188.126-0.109c43.901,4.065,38.853,23.25,63.449,34.557c31.51,1.643,47.39,28.857,48.485,58.041
				C576.268,618.912,590.223,512.903,550.254,496.355z M233.711,418.372c-9.95,19.762-25.197-8.88-4.366-12.897
				C232.724,408.98,235.069,413.389,233.711,418.372z"/>
		</g>
	</g>
</g>
</svg>
